<?xml version="1.0" encoding="UTF-8"?>
<!DOCTYPE svg PUBLIC "-//W3C//DTD SVG 1.1//EN" "http://www.w3.org/Graphics/SVG/1.1/DTD/svg11.dtd">
<!-- Creator: CorelDRAW X6 -->
<svg xmlns="http://www.w3.org/2000/svg" xml:space="preserve" width="14.9444in" height="3.36111in" version="1.1" style="shape-rendering:geometricPrecision; text-rendering:geometricPrecision; image-rendering:optimizeQuality; fill-rule:evenodd; clip-rule:evenodd"
viewBox="0 0 14944 3361"
 xmlns:xlink="http://www.w3.org/1999/xlink">
 <defs>
  <style type="text/css">
   <![CDATA[
    .fil1 {fill:#3B3C3E;fill-rule:nonzero}
    .fil0 {fill:#FCD23E;fill-rule:nonzero}
   ]]>
  </style>
 </defs>
 <g id="Layer_x0020_1">
  <metadata id="CorelCorpID_0Corel-Layer"/>
  <path class="fil0" d="M4099 2183l310 0c22,175 92,320 385,320 192,0 327,-107 327,-267 0,-160 -80,-221 -361,-267 -415,-56 -611,-182 -611,-507 0,-284 242,-497 604,-497 373,0 596,170 630,502l-296 0c-32,-182 -136,-259 -335,-259 -196,0 -298,95 -298,228 0,141 58,211 359,255 407,56 618,172 618,519 0,301 -255,536 -638,536 -473,0 -672,-235 -696,-562z"/>
  <path class="fil0" d="M6562 1955c-15,-218 -126,-315 -308,-315 -177,0 -296,119 -325,315l633 0zm-938 145l0 -19c0,-393 269,-655 630,-655 315,0 599,187 599,640l0 85 -929 0c10,240 131,376 349,376 177,0 269,-70 291,-194l284 0c-41,267 -257,412 -582,412 -373,0 -642,-245 -642,-645z"/>
  <path class="fil1" d="M7132 1453l201 0 0 228c80,-143 189,-242 417,-250l0 189c-255,12 -417,92 -417,405l0 696 -201 0 0 -1268z"/>
  <path class="fil1" d="M8858 1965c-19,-262 -155,-366 -364,-366 -206,0 -344,141 -378,366l742 0zm-958 136l0 -19c0,-383 245,-650 594,-650 293,0 570,177 570,630l0 65 -955 0c10,288 148,448 407,448 196,0 310,-73 337,-221l201 0c-44,255 -255,388 -541,388 -359,0 -613,-252 -613,-642z"/>
  <path class="fil1" d="M9359 1453l201 0 0 201c58,-119 199,-223 407,-223 262,0 446,143 446,512l0 778 -201 0 0 -793c0,-223 -95,-322 -298,-322 -187,0 -354,119 -354,347l0 768 -201 0 0 -1268z"/>
  <path class="fil1" d="M10732 1453l201 0 0 1268 -201 0 0 -1268zm-36 -398c0,-73 61,-133 133,-133 73,0 133,61 133,133 0,73 -61,133 -133,133 -73,0 -133,-61 -133,-133z"/>
  <path class="fil1" d="M11377 2403l0 -781 -182 0 0 -170 182 0 0 -288 201 0 0 288 296 0 0 170 -296 0 0 761c0,124 56,184 158,184 63,0 112,-10 155,-27l0 170c-41,15 -90,27 -172,27 -230,0 -342,-136 -342,-335z"/>
  <polygon class="fil1" points="12536,2590 12039,1453 12255,1453 12643,2362 12994,1453 13200,1453 12500,3162 12296,3162 "/>
  <polygon class="fil0" points="13837,1385 13945,1385 13629,2350 13522,2350 "/>
  <path class="fil0" d="M13922 2183l0 -109c26,10 52,19 96,19 68,0 112,-36 112,-128l0 -517 140 0 0 521c0,162 -93,236 -231,236 -62,0 -93,-9 -117,-22z"/>
  <path class="fil0" d="M14381 1964l134 0c9,75 40,138 166,138 83,0 141,-46 141,-115 0,-69 -34,-95 -156,-115 -179,-24 -263,-78 -263,-218 0,-122 104,-214 260,-214 161,0 257,73 272,216l-128 0c-14,-78 -59,-112 -144,-112 -85,0 -128,41 -128,98 0,61 25,91 155,110 176,24 267,74 267,224 0,130 -110,231 -275,231 -204,0 -289,-101 -300,-243z"/>
  <path class="fil0" d="M2120 1677c0,241 -195,436 -436,436 -241,0 -436,-195 -436,-436 0,-241 195,-436 436,-436 241,0 436,195 436,436z"/>
  <path class="fil1" d="M3202 948l-934 934 652 0c-98,594 -615,1049 -1236,1049l0 0c-436,0 -821,-224 -1045,-563l-310 310c307,415 799,684 1355,684 930,0 1684,-754 1684,-1684 0,-261 -60,-509 -166,-729zm-1518 2413l0 0zm7 -3368l-12 0c-928,2 -1679,755 -1679,1684 0,261 60,509 166,729l934 -934 -652 0c98,-594 615,-1049 1236,-1049l0 0c436,0 821,224 1045,563l310 -310c-305,-413 -795,-681 -1347,-684z"/>
 </g>
</svg>
