<?xml version="1.0" encoding="UTF-8" standalone="no"?>
<!DOCTYPE svg PUBLIC "-//W3C//DTD SVG 1.1//EN" "http://www.w3.org/Graphics/SVG/1.1/DTD/svg11.dtd">
<svg width="100%" height="100%" viewBox="0 0 243 243" version="1.1" xmlns="http://www.w3.org/2000/svg" xmlns:xlink="http://www.w3.org/1999/xlink" xml:space="preserve" style="fill-rule:evenodd;clip-rule:evenodd;stroke-linejoin:round;stroke-miterlimit:1.41421;">
    <g transform="matrix(1,0,0,1,-85.5345,-1036.26)">
        <g transform="matrix(1,0,0,1,0,810)">
            <path d="M238.171,347.493C238.171,364.837 224.111,378.897 206.767,378.897C189.423,378.897 175.362,364.837 175.362,347.493C175.362,330.149 189.423,316.089 206.767,316.089C224.111,316.089 238.171,330.149 238.171,347.493" style="fill:rgb(253,210,10);fill-rule:nonzero;"/>
        </g>
        <g transform="matrix(1,0,0,1,0,810)">
            <path d="M316.068,294.987L248.851,362.204L295.792,362.204C288.747,404.985 251.511,437.725 206.766,437.725C175.37,437.725 147.68,421.598 131.511,397.202L109.225,419.489C131.306,449.355 166.772,468.725 206.766,468.725C273.722,468.725 327.999,414.448 327.999,347.493C327.999,328.683 323.715,310.874 316.068,294.987M117.74,332.783C124.785,290.001 162.021,257.261 206.766,257.261C238.162,257.261 265.852,273.388 282.021,297.784L304.307,275.498C282.227,245.631 246.76,226.261 206.766,226.261C139.811,226.261 85.534,280.539 85.534,347.493C85.534,366.304 89.818,384.113 97.464,399.999L164.681,332.783L117.74,332.783Z" style="fill:white;fill-rule:nonzero;"/>
        </g>
    </g>
</svg>
