<?xml version="1.0" encoding="UTF-8" standalone="no"?>
<!DOCTYPE svg PUBLIC "-//W3C//DTD SVG 1.1//EN" "http://www.w3.org/Graphics/SVG/1.1/DTD/svg11.dtd">
<svg width="100%" height="100%" viewBox="0 0 1077 243" version="1.1" xmlns="http://www.w3.org/2000/svg" xmlns:xlink="http://www.w3.org/1999/xlink" xml:space="preserve" style="fill-rule:evenodd;clip-rule:evenodd;stroke-linejoin:round;stroke-miterlimit:1.41421;">
    <g transform="matrix(1,0,0,1,-85.5345,-1036.26)">
        <g transform="matrix(1,0,0,1,0,810)">
            <path d="M380.668,383.887L403.01,383.887C404.581,396.454 409.643,406.927 430.763,406.927C444.552,406.927 454.326,399.247 454.326,387.727C454.326,376.207 448.566,371.843 428.319,368.527C398.472,364.512 384.334,355.436 384.334,332.047C384.334,311.625 401.788,296.265 427.795,296.265C454.676,296.265 470.733,308.484 473.177,332.396L451.883,332.396C449.613,319.305 442.108,313.72 427.795,313.72C413.657,313.72 406.326,320.527 406.326,330.127C406.326,340.25 410.516,345.313 432.159,348.454C461.482,352.469 476.668,360.847 476.668,385.807C476.668,407.45 458.341,424.381 430.763,424.381C396.727,424.381 382.413,407.45 380.668,383.887" style="fill:rgb(253,210,10);fill-rule:nonzero;"/>
        </g>
        <g transform="matrix(1,0,0,1,0,810)">
            <path d="M558.003,367.48C556.955,351.771 548.926,344.789 535.835,344.789C523.094,344.789 514.541,353.341 512.446,367.48L558.003,367.48ZM490.453,377.953L490.453,376.556C490.453,348.28 509.828,329.429 535.835,329.429C558.526,329.429 578.948,342.869 578.948,375.509L578.948,381.618L512.097,381.618C512.795,398.898 521.523,408.672 537.232,408.672C549.974,408.672 556.607,403.611 558.177,394.709L578.599,394.709C575.632,413.909 560.097,424.381 536.708,424.381C509.828,424.381 490.453,406.752 490.453,377.953" style="fill:rgb(253,210,10);fill-rule:nonzero;"/>
        </g>
        <g transform="matrix(1,0,0,1,0,810)">
            <path d="M599.015,331.349L613.502,331.349L613.502,347.756C619.263,337.458 627.118,330.302 643.525,329.778L643.525,343.393C625.198,344.265 613.502,350.026 613.502,372.541L613.502,422.636L599.015,422.636L599.015,331.349Z" style="fill:white;fill-rule:nonzero;"/>
        </g>
        <g transform="matrix(1,0,0,1,0,810)">
            <path d="M723.289,368.178C721.893,349.327 712.118,341.822 697.107,341.822C682.271,341.822 672.322,351.946 669.878,368.178L723.289,368.178ZM654.344,377.952L654.344,376.556C654.344,348.978 671.973,329.778 697.107,329.778C718.227,329.778 738.126,342.52 738.126,375.159L738.126,379.872L669.354,379.872C670.053,400.643 680.002,412.163 698.679,412.163C712.816,412.163 721.02,406.927 722.94,396.28L737.428,396.28C734.285,414.607 719.1,424.207 698.504,424.207C672.671,424.207 654.344,406.054 654.344,377.952" style="fill:white;fill-rule:nonzero;"/>
        </g>
        <g transform="matrix(1,0,0,1,0,810)">
            <path d="M759.417,331.349L773.904,331.349L773.904,345.836C778.093,337.284 788.217,329.778 803.228,329.778C822.078,329.778 835.344,340.077 835.344,366.607L835.344,422.636L820.856,422.636L820.856,365.56C820.856,349.501 814.05,342.345 799.388,342.345C785.947,342.345 773.904,350.898 773.904,367.305L773.904,422.636L759.417,422.636L759.417,331.349Z" style="fill:white;fill-rule:nonzero;"/>
        </g>
        <g transform="matrix(1,0,0,1,0,810)">
            <path d="M858.267,331.349L872.754,331.349L872.754,422.636L858.267,422.636L858.267,331.349ZM855.649,302.723C855.649,297.486 860.013,293.123 865.25,293.123C870.486,293.123 874.849,297.486 874.849,302.723C874.849,307.96 870.486,312.323 865.25,312.323C860.013,312.323 855.649,307.96 855.649,302.723" style="fill:white;fill-rule:nonzero;"/>
        </g>
        <g transform="matrix(1,0,0,1,0,810)">
            <path d="M904.694,399.771L904.694,343.567L891.603,343.567L891.603,331.349L904.694,331.349L904.694,310.579L919.181,310.579L919.181,331.349L940.475,331.349L940.475,343.567L919.181,343.567L919.181,398.375C919.181,407.276 923.196,411.64 930.527,411.64C935.065,411.64 938.555,410.942 941.698,409.72L941.698,421.938C938.73,422.985 935.239,423.858 929.304,423.858C912.723,423.858 904.694,414.084 904.694,399.771" style="fill:white;fill-rule:nonzero;"/>
        </g>
        <g transform="matrix(1,0,0,1,0,810)">
            <path d="M988.124,413.21L952.342,331.349L967.877,331.349L995.804,396.803L1021.11,331.349L1035.95,331.349L985.506,454.403L970.844,454.403L988.124,413.21Z" style="fill:white;fill-rule:nonzero;"/>
        </g>
        <g transform="matrix(1,0,0,1,0,810)">
            <path d="M1081.8,326.41L1089.55,326.41L1066.82,395.947L1059.14,395.947L1081.8,326.41Z" style="fill:rgb(253,210,10);fill-rule:nonzero;"/>
        </g>
        <g transform="matrix(1,0,0,1,0,810)">
            <path d="M1087.89,383.907L1087.89,376.081C1089.77,376.833 1091.65,377.434 1094.81,377.434C1099.7,377.434 1102.87,374.876 1102.87,368.253L1102.87,331.001L1112.95,331.001L1112.95,368.479C1112.95,380.143 1106.25,385.487 1096.32,385.487C1091.88,385.487 1089.62,384.809 1087.89,383.907" style="fill:rgb(253,210,10);fill-rule:nonzero;"/>
        </g>
        <g transform="matrix(1,0,0,1,0,810)">
            <path d="M1121,368.102L1130.63,368.102C1131.31,373.522 1133.49,378.036 1142.6,378.036C1148.54,378.036 1152.76,374.725 1152.76,369.758C1152.76,364.791 1150.27,362.911 1141.54,361.481C1128.68,359.748 1122.58,355.836 1122.58,345.752C1122.58,336.946 1130.11,330.325 1141.32,330.325C1152.91,330.325 1159.83,335.592 1160.88,345.903L1151.7,345.903C1150.73,340.258 1147.49,337.85 1141.32,337.85C1135.22,337.85 1132.06,340.784 1132.06,344.924C1132.06,349.29 1133.87,351.471 1143.2,352.825C1155.84,354.557 1162.39,358.168 1162.39,368.93C1162.39,378.262 1154.49,385.563 1142.6,385.563C1127.92,385.563 1121.75,378.262 1121,368.102" style="fill:rgb(253,210,10);fill-rule:nonzero;"/>
        </g>
        <g transform="matrix(1,0,0,1,0,810)">
            <path d="M238.171,347.493C238.171,364.837 224.111,378.897 206.767,378.897C189.423,378.897 175.362,364.837 175.362,347.493C175.362,330.149 189.423,316.089 206.767,316.089C224.111,316.089 238.171,330.149 238.171,347.493" style="fill:rgb(253,210,10);fill-rule:nonzero;"/>
        </g>
        <g transform="matrix(1,0,0,1,0,810)">
            <path d="M316.068,294.987L248.851,362.204L295.792,362.204C288.747,404.985 251.511,437.725 206.766,437.725C175.37,437.725 147.68,421.598 131.511,397.202L109.225,419.489C131.306,449.355 166.772,468.725 206.766,468.725C273.722,468.725 327.999,414.448 327.999,347.493C327.999,328.683 323.715,310.874 316.068,294.987M117.74,332.783C124.785,290.001 162.021,257.261 206.766,257.261C238.162,257.261 265.852,273.388 282.021,297.784L304.307,275.498C282.227,245.631 246.76,226.261 206.766,226.261C139.811,226.261 85.534,280.539 85.534,347.493C85.534,366.304 89.818,384.113 97.464,399.999L164.681,332.783L117.74,332.783Z" style="fill:white;fill-rule:nonzero;"/>
        </g>
    </g>
</svg>
