<?xml version="1.0" encoding="UTF-8"?>
<!DOCTYPE svg PUBLIC "-//W3C//DTD SVG 1.1//EN" "http://www.w3.org/Graphics/SVG/1.1/DTD/svg11.dtd">
<!-- Creator: CorelDRAW X6 -->
<svg xmlns="http://www.w3.org/2000/svg" xml:space="preserve" width="3.36111in" height="3.36111in" version="1.1" style="shape-rendering:geometricPrecision; text-rendering:geometricPrecision; image-rendering:optimizeQuality; fill-rule:evenodd; clip-rule:evenodd"
viewBox="0 0 3361 3361">
 xmlns:xlink="http://www.w3.org/1999/xlink">
 <defs>
  <style type="text/css">
   <![CDATA[
    .fil1 {fill:#3B3C3E;fill-rule:nonzero}
    .fil0 {fill:#FCD23E;fill-rule:nonzero}
   ]]>
  </style>
 </defs>
 <g id="Layer_x0020_1">
  <metadata id="CorelCorpID_0Corel-Layer"/>
  <path class="fil0" d="M2120 1677c0,241 -195,436 -436,436 -241,0 -436,-195 -436,-436 0,-241 195,-436 436,-436 241,0 436,195 436,436z"/>
  <path class="fil1" d="M3202 948l-934 934 652 0c-98,594 -615,1049 -1236,1049l0 0c-436,0 -821,-224 -1045,-563l-310 310c307,415 799,684 1355,684 930,0 1684,-754 1684,-1684 0,-261 -60,-509 -166,-729zm-1518 2413l0 0zm7 -3368l-12 0c-928,2 -1679,755 -1679,1684 0,261 60,509 166,729l934 -934 -652 0c98,-594 615,-1049 1236,-1049l0 0c436,0 821,224 1045,563l310 -310c-305,-413 -795,-681 -1347,-684z"/>
 </g>
</svg>
