<?xml version="1.0" standalone="no"?>
<!DOCTYPE svg PUBLIC "-//W3C//DTD SVG 20010904//EN"
 "http://www.w3.org/TR/2001/REC-SVG-20010904/DTD/svg10.dtd">
<svg version="1.0" xmlns="http://www.w3.org/2000/svg"
 width="700.000000pt" height="700.000000pt" viewBox="0 0 700.000000 700.000000"
 preserveAspectRatio="xMidYMid meet">
<metadata>
Created by potrace 1.11, written by Peter Selinger 2001-2013
</metadata>
<g transform="translate(0.000000,700.000000) scale(0.100000,-0.100000)"
fill="#000000" stroke="none">
<path d="M3278 6996 c-1 -2 -41 -6 -88 -10 -82 -6 -120 -11 -185 -21 -16 -3
-50 -8 -75 -11 -25 -3 -94 -17 -155 -30 -60 -13 -121 -27 -135 -30 -92 -20
-379 -112 -445 -143 -11 -6 -54 -24 -95 -42 -311 -132 -650 -347 -909 -578
-119 -105 -291 -280 -367 -372 -407 -494 -661 -1037 -770 -1639 -2 -14 -6 -36
-9 -50 -3 -14 -7 -47 -11 -75 -3 -27 -8 -59 -10 -70 -25 -130 -25 -699 0 -832
2 -10 7 -45 10 -78 4 -33 9 -67 11 -75 3 -8 7 -31 9 -50 16 -127 139 -563 190
-675 7 -16 33 -74 56 -128 l43 -99 969 969 c532 532 968 969 968 969 0 1 -304
1 -675 0 l-674 -1 5 40 c32 225 159 578 289 805 21 36 43 74 49 85 72 130 227
327 376 476 176 177 309 282 520 409 84 51 319 170 335 170 2 0 16 5 32 11
221 90 514 159 743 175 174 12 448 7 550 -11 14 -2 68 -11 120 -20 644 -109
1245 -483 1642 -1022 39 -54 73 -100 74 -102 2 -2 148 141 324 318 l321 321
-52 68 c-173 222 -414 461 -639 634 -83 64 -294 208 -304 208 -3 0 -31 16 -61
36 -132 84 -425 218 -635 289 -161 55 -413 118 -565 141 -27 4 -52 8 -55 9 -3
1 -41 5 -85 10 -44 4 -89 10 -100 12 -25 4 -532 13 -537 9z"/>
<path d="M5686 4053 c-527 -527 -958 -962 -959 -966 -1 -5 299 -9 666 -9 l668
0 -6 -46 c-13 -96 -85 -359 -121 -439 -8 -17 -14 -34 -14 -37 0 -33 -157 -338
-237 -461 -121 -185 -200 -282 -360 -442 -275 -274 -601 -477 -976 -609 -56
-20 -109 -37 -118 -39 -9 -2 -52 -13 -95 -24 -92 -23 -172 -41 -206 -46 -43
-6 -123 -16 -193 -24 -75 -9 -454 -7 -520 3 -22 4 -53 8 -70 10 -35 5 -128 20
-135 21 -3 1 -32 7 -65 14 -251 54 -530 162 -744 289 -77 45 -252 160 -261
171 -3 3 -23 19 -45 36 -22 16 -42 32 -45 35 -3 3 -21 18 -40 34 -53 43 -192
179 -254 249 -54 61 -201 248 -221 281 -8 14 -61 -35 -330 -304 -316 -316
-320 -320 -305 -344 69 -113 382 -443 555 -585 132 -109 118 -98 215 -167 283
-200 590 -357 920 -468 202 -68 497 -135 665 -152 22 -2 58 -6 80 -8 114 -14
186 -18 336 -18 153 -1 365 8 399 17 8 2 42 7 75 11 84 9 117 14 195 29 757
143 1459 539 1960 1105 41 47 77 87 80 90 45 45 199 257 285 395 108 170 305
575 321 660 2 6 16 48 32 95 52 147 117 418 137 570 3 25 8 56 10 70 2 14 7
53 10 87 3 34 8 86 11 115 6 62 6 434 0 493 -2 22 -7 76 -11 120 -4 44 -9 89
-11 100 -2 10 -6 37 -9 60 -11 77 -37 210 -52 270 -8 33 -17 68 -19 79 -2 10
-11 44 -20 75 -9 31 -17 63 -19 71 -16 73 -181 490 -195 490 -4 0 -438 -431
-964 -957z"/>
<path d="M3320 4390 c-436 -90 -741 -473 -725 -910 4 -122 9 -151 36 -240 86
-275 289 -489 561 -590 255 -94 563 -58 800 96 127 82 276 253 324 372 8 20
22 52 31 71 24 52 52 208 54 296 6 311 -144 599 -400 770 -104 69 -190 104
-346 142 -57 14 -255 10 -335 -7z"/>
</g>
</svg>
