<?xml version="1.0" standalone="no"?>
<!DOCTYPE svg PUBLIC "-//W3C//DTD SVG 20010904//EN"
 "http://www.w3.org/TR/2001/REC-SVG-20010904/DTD/svg10.dtd">
<svg version="1.0" xmlns="http://www.w3.org/2000/svg"
 width="500.000000pt" height="500.000000pt" viewBox="0 0 500.000000 500.000000"
 preserveAspectRatio="xMidYMid meet">
<metadata>
Created by potrace 1.11, written by Peter Selinger 2001-2013
</metadata>
<g transform="translate(0.000000,500.000000) scale(0.100000,-0.100000)"
fill="#000000" stroke="none">
<path d="M2320 4994 c-19 -2 -78 -9 -130 -15 -623 -71 -1231 -409 -1634 -909
-292 -363 -470 -781 -538 -1265 -17 -118 -16 -493 1 -615 102 -742 493 -1369
1106 -1775 313 -208 637 -330 1035 -392 160 -24 520 -24 680 0 398 62 722 184
1035 392 616 408 999 1025 1107 1780 19 136 16 504 -5 645 -62 398 -184 722
-392 1035 -400 604 -1017 994 -1740 1101 -96 14 -453 27 -525 18z m430 -344
c406 -49 789 -210 1112 -468 93 -74 240 -221 320 -321 l60 -74 -199 -199 -198
-199 -20 27 c-129 175 -271 314 -430 420 -257 171 -526 259 -831 271 -646 26
-1248 -340 -1523 -927 -45 -96 -94 -240 -111 -327 -6 -32 -14 -66 -16 -75 -5
-17 19 -18 413 -18 l418 0 -595 -595 c-327 -327 -598 -595 -601 -595 -16 0
-109 253 -144 388 -45 176 -57 270 -62 478 -8 293 19 487 102 739 184 561 601
1032 1141 1286 190 90 436 161 649 188 100 12 415 13 515 1z m1730 -1272 c121
-287 170 -510 177 -814 8 -293 -19 -487 -102 -739 -262 -800 -974 -1379 -1814
-1476 -136 -15 -475 -7 -596 15 -222 40 -397 97 -590 191 -283 137 -543 343
-737 584 l-60 74 199 199 198 199 20 -27 c129 -175 271 -314 430 -420 257
-171 526 -259 831 -271 646 -26 1248 340 1523 927 45 96 94 240 111 327 6 32
14 66 16 76 5 16 -19 17 -413 17 l-418 0 595 595 c327 327 598 595 601 595 4
0 16 -24 29 -52z m-1809 -347 c74 -23 168 -81 224 -136 214 -215 214 -575 0
-790 -182 -181 -479 -214 -691 -77 -281 182 -346 545 -145 812 43 57 127 127
194 161 117 60 284 72 418 30z"/>
</g>
</svg>
