<?xml version="1.0" encoding="UTF-8" standalone="no"?>
<!DOCTYPE svg PUBLIC "-//W3C//DTD SVG 1.1//EN" "http://www.w3.org/Graphics/SVG/1.1/DTD/svg11.dtd">
<svg width="100%" height="100%" viewBox="0 0 1000 1000" version="1.1" xmlns="http://www.w3.org/2000/svg" xmlns:xlink="http://www.w3.org/1999/xlink" xml:space="preserve" xmlns:serif="http://www.serif.com/" style="fill-rule:evenodd;clip-rule:evenodd;stroke-linejoin:round;stroke-miterlimit:2;">
    <g id="Path_83" transform="matrix(1.18902,0,0,1.18902,-213.133,-47.3244)">
        <path d="M1017.81,560.461C1012.54,605.611 1001.59,641.861 986.56,670.771C966.56,709.291 932.35,724.811 901.79,741.051C892.959,745.735 883.778,749.727 874.33,752.991C818.72,772.291 756.48,767.171 707.59,756.981C673.299,749.828 638.492,745.427 603.5,743.821C593.52,743.371 583.53,743.148 573.53,743.151C558.11,743.171 280.46,748.441 212.86,611.581C196.17,577.821 184.73,536.581 180.62,486.311C168.99,344.191 232.91,250.851 315.36,189.841C471.33,74.431 685.12,79.271 838.79,197.721C941.15,276.621 1036.99,396.031 1017.81,560.461Z" style="fill:rgb(242,242,242);fill-rule:nonzero;"/>
    </g>
    <g transform="matrix(1.02,0,0,1.02,213.037,198.214)">
        <circle cx="182.653" cy="58" r="58" style="fill:rgb(77,155,228);"/>
    </g>
    <g transform="matrix(1.02,0,0,1.02,213.037,198.214)">
        <circle cx="58.653" cy="209" r="58" style="fill:rgb(25,151,89);"/>
    </g>
    <g transform="matrix(1.02,0,0,1.02,213.037,198.214)">
        <circle cx="181.653" cy="370" r="58" style="fill:rgb(223,87,13);"/>
    </g>
    <g transform="matrix(1.02,0,0,1.02,-129.313,45.2668)">
        <path d="M751.097,714.687C751.152,714.69 751.207,714.691 751.263,714.691C753.245,714.691 754.876,713.06 754.876,711.078C754.876,710.071 754.455,709.108 753.715,708.424C753.624,708.062 753.559,707.802 753.468,707.44C753.5,707.361 753.533,707.283 753.566,707.204C755.082,703.622 758.612,701.284 762.501,701.284C766.417,701.284 769.965,703.654 771.465,707.27C774.392,714.321 778.119,721.384 779.037,728.838C779.441,732.133 779.27,735.474 778.533,738.711C785.408,723.713 788.979,707.41 789.002,690.912C789.003,686.771 788.773,682.634 788.313,678.52C787.932,675.147 787.404,671.797 786.729,668.472C783.044,650.432 775.131,633.52 763.642,619.131C758.082,616.097 753.584,611.43 750.756,605.762C749.732,603.724 749.008,601.549 748.607,599.304C749.234,599.386 749.872,599.437 750.499,599.478C750.695,599.489 750.9,599.499 751.096,599.509L751.17,599.513C751.223,599.515 751.276,599.516 751.33,599.516C753.294,599.516 754.91,597.9 754.91,595.936C754.91,595.115 754.627,594.318 754.11,593.68C753.839,593.347 753.568,593.014 753.297,592.681C752.885,592.167 752.464,591.663 752.052,591.149C752.005,591.1 751.96,591.048 751.919,590.994C751.445,590.408 750.972,589.832 750.499,589.246C751.363,587.906 752.524,586.783 753.893,585.966C758.634,583.189 765.174,585.112 768.599,589.4C772.034,593.689 772.681,599.705 771.489,605.063C770.316,609.622 768.375,613.948 765.75,617.856C766.007,618.185 766.275,618.503 766.532,618.833C771.232,624.876 775.328,631.365 778.762,638.207C777.926,630.542 778.923,622.788 781.67,615.583C784.453,608.868 789.67,603.213 794.265,597.408C799.783,590.435 811.099,593.478 812.072,602.317C812.081,602.403 812.09,602.488 812.099,602.574C811.417,602.959 810.749,603.367 810.095,603.8C808.735,604.708 807.917,606.24 807.917,607.875C807.917,610.283 809.691,612.352 812.071,612.719L812.171,612.734C811.928,615.194 811.498,617.631 810.886,620.025C807.299,633.532 798.231,644.946 785.886,651.494C785.485,651.699 785.094,651.905 784.693,652.101C788.143,661.877 790.307,672.062 791.131,682.397C791.597,688.494 791.569,694.619 791.048,700.712L791.079,700.496C792.395,693.722 796.011,687.606 801.312,683.188C809.186,676.72 820.311,674.338 828.806,669.138C829.713,668.556 830.768,668.247 831.845,668.247C834.931,668.247 837.47,670.786 837.47,673.872C837.47,674.119 837.454,674.366 837.422,674.611C837.41,674.687 837.399,674.762 837.387,674.838C836.121,675.354 834.888,675.948 833.695,676.617C833.013,677.002 832.345,677.411 831.691,677.843C830.331,678.751 829.513,680.283 829.513,681.918C829.513,684.326 831.287,686.395 833.667,686.762L833.767,686.777C833.839,686.788 833.901,686.798 833.973,686.808C831.809,691.975 828.772,696.73 824.995,700.866C815.569,710.981 802.375,716.77 788.549,716.857L788.539,716.857C786.681,724.93 783.99,732.788 780.507,740.304L751.816,740.304C751.713,739.986 751.62,739.657 751.528,739.338C754.183,739.505 756.85,739.346 759.467,738.865C757.338,736.253 755.209,733.62 753.081,731.008C753.033,730.959 752.988,730.907 752.947,730.854C751.867,729.517 750.777,728.19 749.697,726.853L749.697,726.852C749.639,722.754 750.109,718.665 751.096,714.687L751.097,714.687Z" style="fill:rgb(242,242,242);fill-rule:nonzero;"/>
    </g>
    <g transform="matrix(1.02,0,0,1.02,-129.313,45.2668)">
        <path d="M526.597,374.688C527.841,378.852 531.698,381.726 536.044,381.726C537.586,381.726 539.107,381.364 540.483,380.67L565.959,403.919L569.342,386.027L544.615,366.749C542.834,363.731 539.581,361.874 536.077,361.874C530.638,361.874 526.163,366.349 526.163,371.788C526.163,372.771 526.309,373.749 526.596,374.688L526.597,374.688Z" style="fill:rgb(255,182,182);fill-rule:nonzero;"/>
    </g>
    <g transform="matrix(1.02,0,0,1.02,-129.313,45.2668)">
        <path d="M615.267,356.917C615.267,356.917 624.15,336.842 635.37,340.833C645.675,344.498 647.044,343.293 640.796,364.301L598.644,427.819C598.644,427.819 554.309,399.642 561.702,399.367C569.095,399.091 568.895,384.981 568.895,384.981L586.976,390.875L588.063,385.16L589.806,386.902L594.303,383.363L615.267,356.917Z" style="fill:rgb(252,211,10);fill-rule:nonzero;"/>
    </g>
    <g transform="matrix(1.02,0,0,1.02,213.037,198.214)">
        <path d="M330.231,254.446L328.357,271.827L329.46,294.62L281.653,289L278.231,254.446L284.275,254.505L330.231,254.446Z" style="fill:rgb(255,182,182);fill-rule:nonzero;"/>
    </g>
    <g transform="matrix(1.02,0,0,1.02,213.037,198.214)">
        <path d="M339.417,570.02L328.379,570.02L317.653,487L342.653,487L339.417,570.02Z" style="fill:rgb(255,182,182);fill-rule:nonzero;"/>
    </g>
    <g transform="matrix(1.02,0,0,1.02,-129.313,45.2668)">
        <path d="M678.291,652.969L678.291,670.949C678.291,670.949 662.391,685.179 651.291,671.949L644.371,613.329C644.371,613.329 644.201,607.839 640.771,604.579C640.478,604.3 640.223,603.984 640.011,603.639C637.531,599.809 638.541,591.889 638.541,591.889C638.541,591.889 633.721,589.289 632.201,580.889C630.681,572.489 625.681,554.139 625.681,554.139C625.681,554.139 615.351,527.049 616.071,509.899C616.201,506.729 616.251,503.839 616.251,501.239C616.221,489.759 615.071,483.829 615.071,483.829L612.981,443.989L617.291,437.949L637.001,438.529L638.341,438.489L638.831,438.479L659.071,437.869L670.501,444.589C670.501,444.589 671.521,447.129 672.961,450.639C675.651,457.149 679.791,466.999 681.621,470.309C684.441,475.409 683.041,501.649 673.441,513.309C673.441,513.309 669.451,518.979 670.501,521.029C671.451,522.889 670.541,526.039 670.361,526.599L670.361,526.609C670.341,526.659 670.331,526.689 670.331,526.689L668.801,560.689C668.801,560.689 668.801,575.259 672.231,580.579C675.661,585.899 678.291,652.969 678.291,652.969Z" style="fill:rgb(47,46,65);fill-rule:nonzero;"/>
    </g>
    <g transform="matrix(1.02,0,0,1.02,-129.313,45.2668)">
        <path d="M680.881,739.093L672.966,739.093L671.553,731.62L667.934,739.093L646.94,739.093C644.351,739.093 642.221,736.963 642.221,734.374C642.221,732.824 642.984,731.371 644.259,730.49L661.024,718.912L661.024,711.357L678.658,712.409L680.881,739.093Z" style="fill:rgb(47,46,65);fill-rule:nonzero;"/>
    </g>
    <g transform="matrix(1.02,0,0,1.02,213.037,198.214)">
        <path d="M274.158,570.237L263.293,568.29L267.384,484.68L291.992,489.091L274.158,570.237Z" style="fill:rgb(255,182,182);fill-rule:nonzero;"/>
    </g>
    <g transform="matrix(1.02,0,0,1.02,-129.313,45.2668)">
        <path d="M673.441,513.309C673.441,513.309 669.451,518.979 670.501,521.029C671.451,522.889 670.541,526.039 670.361,526.599L670.361,526.609C669.259,527.48 668.093,528.265 666.871,528.959C665.65,529.653 661.091,532.799 661.331,535.089C661.561,537.379 659.111,540.299 659.111,540.299L645.341,571.419C645.341,571.419 640.041,584.999 641.311,591.199C641.701,593.099 641.071,597.889 640.011,603.639C637.641,616.659 629.061,662.549 629.061,662.549L622.291,678.949C622.291,678.949 596.961,671.919 596.291,669.949C596.291,669.949 605.291,606.409 603.281,602.129C601.271,597.849 602.261,585.319 603.901,576.949C605.531,568.569 607.761,520.659 614.661,504.949C615.221,503.669 615.751,502.429 616.251,501.239C621.821,487.829 623.201,480.289 623.201,480.289L635.721,442.419L637.001,438.529L637.291,439.949L638.831,438.479L661.351,446.499L672.961,450.639C675.651,457.149 679.791,466.999 681.621,470.309C684.441,475.409 683.041,501.649 673.441,513.309Z" style="fill:rgb(47,46,65);fill-rule:nonzero;"/>
    </g>
    <g transform="matrix(1.02,0,0,1.02,-129.313,45.2668)">
        <path d="M611.466,712.601L599.343,709.678L597.503,709.235L596.174,716.672L577.625,725.114C575.943,725.875 574.857,727.558 574.857,729.405C574.857,731.682 576.509,733.65 578.752,734.044L599.407,737.754L604.291,731.034L604.362,738.644L612.158,740.035L614.676,713.376L611.466,712.601Z" style="fill:rgb(47,46,65);fill-rule:nonzero;"/>
    </g>
    <g transform="matrix(1.02,0,0,1.02,-129.313,45.2668)">
        <path d="M897.123,741.689L336.829,741.689C336.178,741.687 335.642,741.15 335.642,740.498C335.642,739.846 336.178,739.309 336.829,739.307L897.123,739.307C897.775,739.309 898.311,739.846 898.311,740.498C898.311,741.15 897.775,741.687 897.123,741.689Z" style="fill:rgb(204,204,204);fill-rule:nonzero;"/>
    </g>
    <g transform="matrix(1.02,0,0,1.02,213.037,198.214)">
        <circle cx="308.891" cy="155.163" r="22.048" style="fill:rgb(255,183,183);"/>
    </g>
    <g transform="matrix(1.02,0,0,1.02,-129.313,45.2668)">
        <path d="M621.912,347.27L633.908,340.072L639.291,330.949L653.291,330.949L657.901,337.673L679.107,348.472L678.894,381.459L669.291,430.949L614.291,414.949L610.917,396.408C610.917,396.408 591.322,375.461 608.117,363.465L621.912,347.27Z" style="fill:rgb(252,211,10);fill-rule:nonzero;"/>
    </g>
    <g transform="matrix(1.02,0,0,1.02,-129.313,45.2668)">
        <path d="M673.263,489.7C675.967,488.035 677.618,485.079 677.618,481.903C677.618,479.655 676.79,477.484 675.294,475.806L683.03,392.759L663.174,394.293L661.813,475.443C660.124,477.164 659.177,479.481 659.177,481.892C659.177,486.943 663.333,491.099 668.384,491.099C670.109,491.099 671.8,490.615 673.263,489.701L673.263,489.7Z" style="fill:rgb(255,182,182);fill-rule:nonzero;"/>
    </g>
    <g transform="matrix(1.02,0,0,1.02,-129.313,45.2668)">
        <path d="M679.291,347.949C679.291,347.949 679.291,348.949 682.604,358.337C685.442,366.379 690.464,415.783 680.665,427.841C683.397,429.524 679.288,460.744 678.291,463.949L658.291,458.949C655.593,454.312 658.466,421.764 660.426,420.992L660.311,406.172L655.193,357.321L674.903,349.247L679.291,347.949Z" style="fill:rgb(252,211,10);fill-rule:nonzero;"/>
    </g>
    <g transform="matrix(1.02,0,0,1.02,-129.313,45.2668)">
        <path d="M537.906,387.251L532.862,354.922C532.507,352.634 534.095,350.459 536.383,350.099L543.429,349C545.717,348.646 547.892,350.234 548.252,352.521L553.296,384.85C553.65,387.138 552.062,389.314 549.775,389.673L542.729,390.772C540.441,391.127 538.265,389.539 537.906,387.251Z" style="fill:rgb(63,61,86);fill-rule:nonzero;"/>
    </g>
    <g transform="matrix(1.02,0,0,1.02,-129.313,45.2668)">
        <path d="M537.464,351.62C536.232,351.814 535.376,352.986 535.567,354.219L540.611,386.548C540.805,387.78 541.977,388.636 543.21,388.445L550.256,387.346C551.489,387.152 552.345,385.98 552.154,384.747L547.109,352.418C546.916,351.185 545.743,350.329 544.51,350.52L537.464,351.62Z" style="fill:rgb(252,211,10);fill-rule:nonzero;"/>
    </g>
    <g transform="matrix(1.02,0,0,1.02,-129.313,45.2668)">
        <path d="M677.291,315.24L677.291,317.715C677.291,324.269 671.898,329.663 665.343,329.663C665.242,329.663 665.14,329.662 665.039,329.659L648.8,329.144C648.61,327.536 648.079,325.987 647.244,324.6C647.356,326.125 647.141,327.656 646.613,329.091L639.429,328.912C645.124,316.361 647.346,305.692 639.429,300.516L628.786,300.516C628.573,298.99 628.054,297.524 627.261,296.204C627.373,297.665 627.18,299.133 626.693,300.516L616.291,300.516C616.294,289.554 625.313,280.536 636.274,280.533L639.429,280.533C663.219,274.549 675.777,287.338 677.291,315.24Z" style="fill:rgb(47,46,65);fill-rule:nonzero;"/>
    </g>
    <g transform="matrix(1.02,0,0,1.02,-129.313,45.2668)">
        <path d="M435.228,383.391C428.311,383.391 422.619,377.7 422.619,370.783C422.619,363.866 428.311,358.174 435.228,358.174C442.144,358.174 447.836,363.866 447.836,370.783C447.828,377.697 442.142,383.384 435.228,383.391ZM435.228,360.467C429.568,360.467 424.912,365.124 424.912,370.783C424.912,376.442 429.568,381.099 435.228,381.099C440.887,381.099 445.544,376.442 445.544,370.783C445.537,365.126 440.884,360.473 435.228,360.467Z" style="fill:rgb(47,46,65);fill-rule:nonzero;"/>
    </g>
    <g transform="matrix(1.02,0,0,1.02,-129.313,45.2668)">
        <path d="M435.228,388.549C425.481,388.549 417.461,380.529 417.461,370.783C417.461,361.036 425.481,353.016 435.228,353.016C444.974,353.016 452.994,361.036 452.994,370.783C452.983,380.525 444.97,388.538 435.228,388.549ZM435.228,355.309C435.228,355.309 435.228,355.309 435.228,355.309C426.739,355.309 419.754,362.294 419.754,370.783C419.754,379.272 426.739,386.257 435.228,386.257C443.716,386.257 450.702,379.272 450.702,370.783C450.692,362.298 443.713,355.318 435.228,355.309Z" style="fill:rgb(47,46,65);fill-rule:nonzero;"/>
    </g>
    <g transform="matrix(1.02,0,0,1.02,-129.313,45.2668)">
        <path d="M435.228,408.035C435.228,408.035 435.228,408.035 435.228,408.035C414.792,408.035 397.975,391.219 397.975,370.783C397.975,350.347 414.792,333.53 435.228,333.53C455.664,333.53 472.48,350.347 472.48,370.783C472.48,370.783 472.48,370.783 472.48,370.783C472.457,391.21 455.655,408.012 435.228,408.035ZM435.228,335.823C416.049,335.823 400.268,351.604 400.268,370.783C400.268,389.961 416.049,405.743 435.228,405.743C454.406,405.743 470.188,389.961 470.188,370.783C470.166,351.613 454.398,335.845 435.228,335.823L435.228,335.823Z" style="fill:rgb(47,46,65);fill-rule:nonzero;"/>
    </g>
    <g transform="matrix(0.872123,-0.528953,0.528953,0.872123,-260.848,317.029)">
        <rect x="410.907" y="349.539" width="2.292" height="28.648" style="fill:rgb(47,46,65);"/>
    </g>
    <g transform="matrix(0.499449,-0.889348,0.889348,0.499449,-252.051,641.741)">
        <rect x="425.957" y="394.038" width="26.848" height="2.293" style="fill:rgb(47,46,65);"/>
    </g>
    <g transform="matrix(1.01989,-0.0144418,0.0144418,1.01989,-134.384,51.8462)">
        <rect x="438.847" y="353.215" width="28.443" height="2.293" style="fill:rgb(47,46,65);"/>
    </g>
    <g transform="matrix(1.02,0,0,1.02,-129.313,45.2668)">
        <path d="M479.324,502.766L478.093,500.833C481.162,498.88 484.719,497.827 488.357,497.796L488.379,500.088C485.17,500.116 482.032,501.044 479.324,502.766Z" style="fill:rgb(47,46,65);fill-rule:nonzero;"/>
    </g>
    <g transform="matrix(1.02,0,0,1.02,-129.313,45.2668)">
        <path d="M490.043,553.948C489.926,553.949 489.809,553.949 489.692,553.949C469.569,553.949 453.011,537.391 453.011,517.269C453.011,506.215 458.007,495.734 466.594,488.774L468.039,490.554C459.989,497.079 455.305,506.905 455.305,517.267C455.305,536.131 470.827,551.653 489.691,551.653C508.555,551.653 524.077,536.131 524.077,517.267C524.077,509.476 521.429,501.911 516.569,495.82L518.36,494.389C523.495,500.778 526.318,508.721 526.368,516.918C526.539,537.03 510.155,553.732 490.043,553.948Z" style="fill:rgb(47,46,65);fill-rule:nonzero;"/>
    </g>
    <g transform="matrix(1.02,0,0,1.02,-129.313,45.2668)">
        <path d="M474.996,520.115L472.797,519.467C473.65,516.435 476.065,514.082 479.118,513.308L479.303,513.286L486.172,513.021L488.806,509.81L486.781,509.156L476.934,501.918L476.861,494.317L466.611,501.293L466.501,489.752L468.793,489.73L468.863,496.988L479.112,490.011L479.215,500.75L487.839,507.089L492.713,508.662L487.291,515.271L479.501,515.572C477.313,516.198 475.604,517.922 474.996,520.115Z" style="fill:rgb(47,46,65);fill-rule:nonzero;"/>
    </g>
    <g transform="matrix(1.02,0,0,1.02,-129.313,45.2668)">
        <path d="M521.803,509.782L500.284,479.474C489.439,482.244 489.034,498.795 489.031,498.966L486.739,498.928C486.752,498.141 487.215,479.624 500.562,477.064L501.286,476.925L516.937,498.97L515.862,494.342L518.095,493.823L521.803,509.782Z" style="fill:rgb(47,46,65);fill-rule:nonzero;"/>
    </g>
    <g transform="matrix(1.02,0,0,1.02,-129.313,45.2668)">
        <path d="M489.283,534.468C480.732,534.503 473.463,527.975 472.581,519.471L474.863,519.249C475.58,526.547 481.789,532.176 489.122,532.176C496.983,532.176 503.451,525.708 503.451,517.848C503.451,517.802 503.45,517.757 503.45,517.711C503.421,512.701 500.749,508.061 496.43,505.522L491.388,502.526L501.303,504.026C497.679,501.111 493.068,499.7 488.433,500.087L488.303,497.798C499.8,497.137 505.198,504.689 505.422,505.011L506.941,507.196L501.103,506.314C504.079,509.411 505.743,513.543 505.743,517.838C505.743,526.897 498.341,534.375 489.283,534.468L489.283,534.468Z" style="fill:rgb(47,46,65);fill-rule:nonzero;"/>
    </g>
    <g transform="matrix(1.02,0,0,1.02,-129.313,45.2668)">
        <path d="M519.269,200.43C519.086,200.247 518.914,200.075 518.73,199.891C511.882,193.196 502.676,189.443 493.098,189.443C472.984,189.443 456.433,205.994 456.433,226.108C456.433,235.7 460.196,244.919 466.909,251.77C467.07,251.941 467.242,252.113 467.414,252.285C474.269,259.026 483.508,262.807 493.123,262.807C513.238,262.807 529.791,246.255 529.791,226.139C529.791,216.524 526.01,207.286 519.269,200.43ZM493.112,260.515C484.267,260.524 475.755,257.104 469.374,250.979C468.984,250.612 468.606,250.234 468.25,249.844C462.139,243.453 458.725,234.942 458.725,226.099C458.725,207.251 474.235,191.741 493.083,191.741C501.921,191.741 510.426,195.151 516.816,201.255C517.206,201.622 517.584,202 517.951,202.39C524.076,208.784 527.499,217.304 527.499,226.158C527.499,245.006 511.99,260.515 493.142,260.515C493.132,260.515 493.122,260.515 493.112,260.515Z" style="fill:rgb(47,46,65);fill-rule:nonzero;"/>
    </g>
    <g transform="matrix(1.02,0,0,1.02,-129.313,45.2668)">
        <path d="M518.73,199.891L516.816,201.255L488.779,221.119L487.702,221.876L468.25,249.844L466.909,251.77C467.07,251.941 467.242,252.113 467.414,252.285L469.374,250.979L497.41,232.284L498.522,231.539L517.951,202.39L519.269,200.43C519.086,200.247 518.914,200.075 518.73,199.891ZM497.468,228.994L496.872,229.888L495.817,230.587L474.578,244.743L488.733,224.398L489.352,223.504L490.373,222.781L511.647,207.72L497.468,228.994Z" style="fill:rgb(47,46,65);fill-rule:nonzero;"/>
    </g>
    <g transform="matrix(0.671667,-0.767628,0.767628,0.671667,-131.572,502.757)">
        <rect x="491.966" y="220.609" width="2.293" height="12.185" style="fill:rgb(47,46,65);"/>
    </g>
    <g transform="matrix(1.02,0,0,1.02,213.037,198.214)">
        <rect x="155.754" y="43.512" width="2.292" height="5.37" style="fill:rgb(47,46,65);"/>
    </g>
    <g transform="matrix(1.02,0,0,1.02,213.037,198.214)">
        <rect x="155.754" y="101.969" width="2.292" height="5.37" style="fill:rgb(47,46,65);"/>
    </g>
    <g transform="matrix(1.02,0,0,1.02,213.037,198.214)">
        <rect x="155.754" y="43.512" width="2.292" height="5.37"/>
    </g>
    <g transform="matrix(1.02,0,0,1.02,213.037,198.214)">
        <rect x="155.754" y="101.969" width="2.292" height="5.37"/>
    </g>
    <g transform="matrix(0.378473,-0.947179,0.947179,0.378473,5.85963,649.244)">
        <rect x="500.709" y="197.09" width="5.37" height="2.293" style="fill:rgb(47,46,65);"/>
    </g>
    <g transform="matrix(0.378473,-0.947179,0.947179,0.378473,-59.4773,663.501)">
        <rect x="478.999" y="251.367" width="5.37" height="2.293" style="fill:rgb(47,46,65);"/>
    </g>
    <g transform="matrix(0.378473,-0.947179,0.947179,0.378473,5.85963,649.244)">
        <rect x="500.709" y="197.09" width="5.37" height="2.293"/>
    </g>
    <g transform="matrix(0.378473,-0.947179,0.947179,0.378473,-59.4773,663.501)">
        <rect x="478.999" y="251.367" width="5.37" height="2.293"/>
    </g>
    <g transform="matrix(0.603598,-0.822228,0.822228,0.603598,-82.9557,548.503)">
        <rect x="507.151" y="200.667" width="5.37" height="2.293" style="fill:rgb(47,46,65);"/>
    </g>
    <g transform="matrix(0.603598,-0.822228,0.822228,0.603598,-136.106,539.68)">
        <rect x="472.557" y="247.79" width="5.37" height="2.293" style="fill:rgb(47,46,65);"/>
    </g>
    <g transform="matrix(0.603598,-0.822228,0.822228,0.603598,-82.9557,548.503)">
        <rect x="507.151" y="200.667" width="5.37" height="2.293"/>
    </g>
    <g transform="matrix(0.603598,-0.822228,0.822228,0.603598,-136.106,539.68)">
        <rect x="472.557" y="247.79" width="5.37" height="2.293"/>
    </g>
    <g transform="matrix(0.848687,-0.565792,0.565792,0.848687,-159.112,373.531)">
        <rect x="514.172" y="208.012" width="5.37" height="2.292" style="fill:rgb(47,46,65);"/>
    </g>
    <g transform="matrix(0.848687,-0.565792,0.565792,0.848687,-185.793,351.569)">
        <rect x="465.536" y="240.445" width="5.37" height="2.292" style="fill:rgb(47,46,65);"/>
    </g>
    <g transform="matrix(0.848687,-0.565792,0.565792,0.848687,-159.112,373.531)">
        <rect x="514.172" y="208.012" width="5.37" height="2.292"/>
    </g>
    <g transform="matrix(0.848687,-0.565792,0.565792,0.848687,-185.793,351.569)">
        <rect x="465.536" y="240.445" width="5.37" height="2.292"/>
    </g>
    <g transform="matrix(0.969871,-0.315818,0.315818,0.969871,-171.551,220.44)">
        <rect x="517.646" y="215.178" width="5.37" height="2.292" style="fill:rgb(47,46,65);"/>
    </g>
    <g transform="matrix(0.969873,-0.315821,0.315821,0.969873,-180.054,203.793)">
        <rect x="462.062" y="233.28" width="5.37" height="2.292" style="fill:rgb(47,46,65);"/>
    </g>
    <g transform="matrix(0.969871,-0.315818,0.315818,0.969871,-171.551,220.44)">
        <rect x="517.646" y="215.178" width="5.37" height="2.292"/>
    </g>
    <g transform="matrix(0.969873,-0.315821,0.315821,0.969873,-180.054,203.793)">
        <rect x="462.062" y="233.28" width="5.37" height="2.292"/>
    </g>
    <g transform="matrix(1.01981,-0.0194202,0.0194202,1.01981,-133.583,55.4411)">
        <rect x="519.077" y="223.673" width="5.37" height="2.293" style="fill:rgb(47,46,65);"/>
    </g>
    <g transform="matrix(1.01981,-0.0194202,0.0194202,1.01981,-133.615,54.3063)">
        <rect x="460.631" y="224.784" width="5.37" height="2.293" style="fill:rgb(47,46,65);"/>
    </g>
    <g transform="matrix(1.01981,-0.0194202,0.0194202,1.01981,-133.583,55.4411)">
        <rect x="519.077" y="223.673" width="5.37" height="2.293"/>
    </g>
    <g transform="matrix(1.01981,-0.0194202,0.0194202,1.01981,-133.615,54.3063)">
        <rect x="460.631" y="224.784" width="5.37" height="2.293"/>
    </g>
    <g transform="matrix(0.226218,-0.994593,0.994593,0.226218,53.671,747.534)">
        <rect x="519.893" y="229.174" width="2.292" height="5.37" style="fill:rgb(47,46,65);"/>
    </g>
    <g transform="matrix(0.226218,-0.994593,0.994593,0.226218,21.3229,680.547)">
        <rect x="462.892" y="216.206" width="2.292" height="5.37" style="fill:rgb(47,46,65);"/>
    </g>
    <g transform="matrix(0.226218,-0.994593,0.994593,0.226218,53.671,747.534)">
        <rect x="519.893" y="229.174" width="2.292" height="5.37"/>
    </g>
    <g transform="matrix(0.226218,-0.994593,0.994593,0.226218,21.3229,680.547)">
        <rect x="462.892" y="216.206" width="2.292" height="5.37"/>
    </g>
    <g transform="matrix(0.464767,-0.907955,0.907955,0.464767,-58.1197,648.623)">
        <rect x="517.41" y="236.009" width="2.292" height="5.37" style="fill:rgb(47,46,65);"/>
    </g>
    <g transform="matrix(0.464767,-0.907955,0.907955,0.464767,-62.8239,586.586)">
        <rect x="465.375" y="209.37" width="2.292" height="5.37" style="fill:rgb(47,46,65);"/>
    </g>
    <g transform="matrix(0.464767,-0.907955,0.907955,0.464767,-58.1197,648.623)">
        <rect x="517.41" y="236.009" width="2.292" height="5.37"/>
    </g>
    <g transform="matrix(0.464767,-0.907955,0.907955,0.464767,-62.8239,586.586)">
        <rect x="465.375" y="209.37" width="2.292" height="5.37"/>
    </g>
    <g transform="matrix(0.65851,-0.778945,0.778945,0.65851,-133.452,534.605)">
        <rect x="513.714" y="241.56" width="2.292" height="5.371" style="fill:rgb(47,46,65);"/>
    </g>
    <g transform="matrix(0.65851,-0.778945,0.778945,0.65851,-120.192,486.189)">
        <rect x="469.072" y="203.819" width="2.292" height="5.371" style="fill:rgb(47,46,65);"/>
    </g>
    <g transform="matrix(0.65851,-0.778945,0.778945,0.65851,-133.452,534.605)">
        <rect x="513.714" y="241.56" width="2.292" height="5.371"/>
    </g>
    <g transform="matrix(0.65851,-0.778945,0.778945,0.65851,-120.192,486.189)">
        <rect x="469.072" y="203.819" width="2.292" height="5.371"/>
    </g>
    <g transform="matrix(0.81009,-0.619794,0.619794,0.81009,-176.271,413.728)">
        <rect x="509.155" y="245.902" width="2.293" height="5.37" style="fill:rgb(47,46,65);"/>
    </g>
    <g transform="matrix(0.81009,-0.619794,0.619794,0.81009,-154.954,381.965)">
        <rect x="473.631" y="199.477" width="2.293" height="5.37" style="fill:rgb(47,46,65);"/>
    </g>
    <g transform="matrix(0.81009,-0.619794,0.619794,0.81009,-176.271,413.728)">
        <rect x="509.155" y="245.902" width="2.293" height="5.37"/>
    </g>
    <g transform="matrix(0.81009,-0.619794,0.619794,0.81009,-154.954,381.965)">
        <rect x="473.631" y="199.477" width="2.293" height="5.37"/>
    </g>
    <g transform="matrix(0.922937,-0.434255,0.434255,0.922937,-189.655,288.999)">
        <rect x="503.836" y="249.137" width="2.292" height="5.37" style="fill:rgb(47,46,65);"/>
    </g>
    <g transform="matrix(0.922937,-0.434255,0.434255,0.922937,-169.101,273.058)">
        <rect x="478.949" y="196.242" width="2.292" height="5.37" style="fill:rgb(47,46,65);"/>
    </g>
    <g transform="matrix(0.922937,-0.434255,0.434255,0.922937,-189.655,288.999)">
        <rect x="503.836" y="249.137" width="2.292" height="5.37"/>
    </g>
    <g transform="matrix(0.922937,-0.434255,0.434255,0.922937,-169.101,273.058)">
        <rect x="478.949" y="196.242" width="2.292" height="5.37"/>
    </g>
    <g transform="matrix(0.997996,-0.210698,0.210698,0.997996,-171.856,155.903)">
        <rect x="497.432" y="251.288" width="2.293" height="5.37" style="fill:rgb(47,46,65);"/>
    </g>
    <g transform="matrix(0.997996,-0.210698,0.210698,0.997996,-160.071,152.1)">
        <rect x="485.354" y="194.092" width="2.293" height="5.37" style="fill:rgb(47,46,65);"/>
    </g>
    <g transform="matrix(0.997996,-0.210698,0.210698,0.997996,-171.856,155.903)">
        <rect x="497.432" y="251.288" width="2.293" height="5.37"/>
    </g>
    <g transform="matrix(0.997996,-0.210698,0.210698,0.997996,-160.071,152.1)">
        <rect x="485.354" y="194.092" width="2.293" height="5.37"/>
    </g>
    <g transform="matrix(0.194286,-1.00132,1.00132,0.194286,18.3771,742.663)">
        <rect x="484.282" y="252.922" width="5.37" height="2.292" style="fill:rgb(47,46,65);"/>
    </g>
    <g transform="matrix(0.194286,-1.00132,1.00132,0.194286,85.0397,706.438)">
        <rect x="495.426" y="195.536" width="5.37" height="2.292" style="fill:rgb(47,46,65);"/>
    </g>
    <g transform="matrix(0.194286,-1.00132,1.00132,0.194286,18.3771,742.663)">
        <rect x="484.282" y="252.922" width="5.37" height="2.292"/>
    </g>
    <g transform="matrix(0.194286,-1.00132,1.00132,0.194286,85.0397,706.438)">
        <rect x="495.426" y="195.536" width="5.37" height="2.292"/>
    </g>
    <g transform="matrix(0.764298,0,0,0.764298,405.269,138.369)">
        <path d="M479.797,331.154L313.797,331.154C311.055,331.151 308.8,328.896 308.797,326.154L308.797,270.154C308.8,267.412 311.055,265.157 313.797,265.154L479.797,265.154C482.538,265.157 484.793,267.412 484.797,270.154L484.797,326.154C484.793,328.896 482.538,331.151 479.797,331.154Z" style="fill:rgb(63,61,86);fill-rule:nonzero;"/>
    </g>
    <g transform="matrix(0.764298,0,0,0.764298,597.304,306.043)">
        <rect x="83.539" y="60.771" width="44" height="5" style="fill:white;"/>
    </g>
    <g transform="matrix(0.764298,0,0,0.764298,597.304,306.043)">
        <circle cx="185.539" cy="63.771" r="3" style="fill:rgb(252,211,10);"/>
    </g>
    <g transform="matrix(0.764298,0,0,0.764298,597.304,306.043)">
        <circle cx="195.539" cy="63.771" r="3" style="fill:rgb(252,211,10);"/>
    </g>
    <g transform="matrix(0.764298,0,0,0.764298,597.304,306.043)">
        <circle cx="205.539" cy="63.771" r="3" style="fill:rgb(252,211,10);"/>
    </g>
    <g transform="matrix(0.764298,0,0,0.764298,405.269,138.369)">
        <path d="M479.797,402.154L313.797,402.154C311.055,402.151 308.8,399.896 308.797,397.154L308.797,341.154C308.8,338.412 311.055,336.157 313.797,336.154L479.797,336.154C482.538,336.157 484.793,338.412 484.797,341.154L484.797,397.154C484.793,399.896 482.538,402.151 479.797,402.154Z" style="fill:rgb(63,61,86);fill-rule:nonzero;"/>
    </g>
    <g transform="matrix(0.764298,0,0,0.764298,597.304,306.043)">
        <rect x="83.539" y="131.771" width="44" height="5" style="fill:white;"/>
    </g>
    <g transform="matrix(0.764298,0,0,0.764298,597.304,306.043)">
        <circle cx="185.539" cy="134.771" r="3" style="fill:rgb(252,211,10);"/>
    </g>
    <g transform="matrix(0.764298,0,0,0.764298,597.304,306.043)">
        <circle cx="195.539" cy="134.771" r="3" style="fill:rgb(252,211,10);"/>
    </g>
    <g transform="matrix(0.764298,0,0,0.764298,597.304,306.043)">
        <circle cx="205.539" cy="134.771" r="3" style="fill:rgb(252,211,10);"/>
    </g>
    <g transform="matrix(0.764298,0,0,0.764298,405.269,138.369)">
        <path d="M479.797,473.154L313.797,473.154C311.055,473.151 308.8,470.896 308.797,468.154L308.797,412.154C308.8,409.412 311.055,407.157 313.797,407.154L479.797,407.154C482.538,407.157 484.793,409.412 484.797,412.154L484.797,468.154C484.793,470.896 482.538,473.151 479.797,473.154Z" style="fill:rgb(63,61,86);fill-rule:nonzero;"/>
    </g>
    <g transform="matrix(0.764298,0,0,0.764298,597.304,306.043)">
        <rect x="83.539" y="202.771" width="44" height="5" style="fill:white;"/>
    </g>
    <g transform="matrix(0.764298,0,0,0.764298,597.304,306.043)">
        <circle cx="185.539" cy="205.771" r="3" style="fill:rgb(252,211,10);"/>
    </g>
    <g transform="matrix(0.764298,0,0,0.764298,597.304,306.043)">
        <circle cx="195.539" cy="205.771" r="3" style="fill:rgb(252,211,10);"/>
    </g>
    <g transform="matrix(0.764298,0,0,0.764298,597.304,306.043)">
        <circle cx="205.539" cy="205.771" r="3" style="fill:rgb(252,211,10);"/>
    </g>
</svg>
