<?xml version="1.0" encoding="UTF-8" standalone="no"?>
<!DOCTYPE svg PUBLIC "-//W3C//DTD SVG 1.1//EN" "http://www.w3.org/Graphics/SVG/1.1/DTD/svg11.dtd">
<svg width="100%" height="100%" viewBox="0 0 1000 1000" version="1.1" xmlns="http://www.w3.org/2000/svg" xmlns:xlink="http://www.w3.org/1999/xlink" xml:space="preserve" xmlns:serif="http://www.serif.com/" style="fill-rule:evenodd;clip-rule:evenodd;stroke-linejoin:round;stroke-miterlimit:2;">
    <g id="Path_83" transform="matrix(1.18902,0,0,1.18902,-213.133,7.54524)">
        <path d="M1017.81,560.461C1012.54,605.611 1001.59,641.861 986.56,670.771C966.56,709.291 932.35,724.811 901.79,741.051C892.959,745.735 883.778,749.727 874.33,752.991C818.72,772.291 756.48,767.171 707.59,756.981C673.299,749.828 638.492,745.427 603.5,743.821C593.52,743.371 583.53,743.148 573.53,743.151C558.11,743.171 280.46,748.441 212.86,611.581C196.17,577.821 184.73,536.581 180.62,486.311C168.99,344.191 232.91,250.851 315.36,189.841C471.33,74.431 685.12,79.271 838.79,197.721C941.15,276.621 1036.99,396.031 1017.81,560.461Z" style="fill:rgb(242,242,242);fill-rule:nonzero;"/>
    </g>
    <g transform="matrix(1,0,0,1,-110,90)">
        <path d="M489.746,676.2C489.703,676.202 489.66,676.203 489.617,676.203C488.077,676.203 486.81,674.936 486.81,673.396C486.81,672.613 487.137,671.865 487.711,671.334L487.904,670.569C487.878,670.508 487.853,670.447 487.827,670.386C486.649,667.603 483.907,665.786 480.885,665.786C477.843,665.786 475.086,667.627 473.921,670.438C471.646,675.916 468.75,681.403 468.037,687.195C467.723,689.756 467.856,692.351 468.429,694.866C463.087,683.213 460.312,670.546 460.295,657.727C460.293,654.51 460.472,651.296 460.83,648.099C461.126,645.478 461.536,642.876 462.06,640.292C464.924,626.275 471.072,613.135 479.999,601.955C484.319,599.598 487.814,595.972 490.01,591.568C490.806,589.984 491.369,588.294 491.68,586.55C491.193,586.614 489.843,579.191 490.21,578.735C489.531,577.705 488.315,577.192 487.573,576.186C483.884,571.184 478.801,572.058 476.147,578.855C470.479,581.716 470.424,586.461 473.902,591.024C476.115,593.928 476.419,597.856 478.361,600.964C478.161,601.22 477.953,601.468 477.753,601.723C474.102,606.419 470.919,611.461 468.251,616.777C468.9,610.822 468.125,604.796 465.992,599.198C463.829,593.981 459.775,589.587 456.206,585.077C451.918,579.659 443.125,582.024 442.37,588.891C442.363,588.958 442.355,589.024 442.348,589.091C442.879,589.39 443.398,589.707 443.906,590.043C444.962,590.749 445.598,591.939 445.598,593.209C445.598,595.08 444.219,596.688 442.37,596.973L442.293,596.985C442.481,598.896 442.815,600.79 443.291,602.65C438.712,620.36 448.599,626.811 462.716,627.1C463.027,627.26 463.331,627.42 463.643,627.572C460.962,635.168 459.281,643.081 458.641,651.111C458.278,655.849 458.3,660.608 458.705,665.342L458.681,665.174C457.658,659.911 454.849,655.159 450.73,651.726C444.612,646.701 435.968,644.85 429.368,640.81C428.663,640.358 427.843,640.117 427.006,640.117C424.609,640.117 422.636,642.09 422.636,644.488C422.636,644.68 422.648,644.872 422.673,645.062C422.682,645.121 422.691,645.18 422.7,645.238C423.684,645.639 424.642,646.101 425.569,646.621C426.099,646.92 426.618,647.237 427.126,647.573C428.182,648.279 428.818,649.469 428.818,650.739C428.818,652.61 427.44,654.218 425.591,654.503L425.513,654.515C425.457,654.523 425.409,654.531 425.353,654.539C427.034,658.553 429.394,662.248 432.329,665.462C435.192,680.922 447.491,682.389 460.646,677.887L460.654,677.887C462.098,684.159 464.189,690.264 466.895,696.104L489.187,696.104C489.267,695.857 489.339,695.601 489.411,695.353C487.348,695.483 485.276,695.36 483.243,694.986C484.897,692.956 486.551,690.911 488.205,688.881C488.242,688.843 488.276,688.803 488.308,688.761C489.147,687.723 489.994,686.692 490.833,685.653L490.834,685.652C490.879,682.468 490.513,679.291 489.747,676.201L489.746,676.2Z" style="fill:rgb(66,103,178);fill-rule:nonzero;"/>
    </g>
    <g transform="matrix(1,0,0,1,128.635,293.001)">
        <path d="M79.642,439.481L85.793,445.982L114.354,424.822L105.276,415.227L79.642,439.481Z" style="fill:rgb(160,97,106);fill-rule:nonzero;"/>
    </g>
    <g transform="matrix(1,0,0,1,-110,90)">
        <path d="M328.356,646.078L321.393,639.536L319.683,637.934L301.955,652.108L306.566,656.982L311.995,653.501L309.501,660.084L321.728,673.006C322.483,673.806 323.535,674.259 324.635,674.259C326.829,674.259 328.635,672.453 328.635,670.259C328.635,670.055 328.619,669.852 328.588,669.65L325.949,652.579L330.599,648.181L328.356,646.078Z" style="fill:rgb(47,46,65);fill-rule:nonzero;"/>
    </g>
    <g transform="matrix(1,0,0,1,-110,90)">
        <path d="M453.459,405.781L451.509,427.071C451.509,427.071 448.105,443.111 450.462,441.811C452.819,440.511 448.593,446.362 449.706,451.436C450.819,456.511 440.199,494.351 445.009,490.431C449.819,486.511 442.229,513.591 437.429,526.951C435.959,531.081 434.449,535.261 432.929,539.411C432.629,540.251 432.329,541.081 432.019,541.921C430.049,547.321 428.079,552.641 426.189,557.661C425.919,558.361 425.659,559.061 425.399,559.751C425.389,559.771 425.389,559.791 425.379,559.791C419.159,576.161 413.829,589.041 411.699,591.171C410.589,592.281 392.979,605.001 375.229,617.741C356.599,631.111 337.819,644.511 337.819,644.511L320.279,626.111C320.279,626.111 320.699,625.991 321.489,625.751C322.949,625.331 325.649,624.541 329.189,623.491C343.949,619.141 325.199,612.371 338.599,607.531C342.379,606.171 344.899,605.111 345.469,604.551C348.799,601.301 353.269,593.551 355.379,596.801C357.489,600.051 367.059,575.901 369.819,573.511C371.299,572.221 376.129,566.191 380.269,560.891C383.829,556.331 386.889,552.301 386.889,552.301C386.889,552.301 386.949,550.141 387.039,546.701C387.169,541.611 387.359,533.701 387.559,525.781C387.549,525.77 387.549,525.77 387.559,525.77C387.629,522.79 387.699,519.81 387.769,516.98C387.819,514.791 387.869,512.681 387.919,510.73C388.049,504.891 388.139,500.471 388.139,499.371C388.139,495.761 388.139,498.571 390.989,496.391C391.415,496.056 391.819,495.696 392.199,495.311C392.808,494.762 393.37,494.163 393.879,493.521C394.089,493.071 392.779,493.681 391.079,493.341C390.158,493.156 389.307,492.72 388.619,492.081C385.039,488.861 388.899,478.961 388.899,478.961C380.759,462.681 381.349,449.331 385.159,439.041C388.008,431.657 392.53,425.033 398.369,419.691C400.591,417.573 403.013,415.674 405.599,414.021L405.849,412.671L408.599,397.781C410.062,396.977 411.583,396.286 413.149,395.711C418.033,393.959 423.275,393.436 428.409,394.191C433.511,394.929 438.452,396.529 443.019,398.921C446.752,400.797 450.256,403.099 453.459,405.781Z" style="fill:rgb(47,46,65);fill-rule:nonzero;"/>
    </g>
    <g transform="matrix(1,0,0,1,128.635,293.001)">
        <path d="M138.02,472.651L146.931,473.48L154.44,438.736L141.287,437.513L138.02,472.651Z" style="fill:rgb(160,97,106);fill-rule:nonzero;"/>
    </g>
    <g transform="matrix(1,0,0,1,-110,90)">
        <path d="M402.319,689.271L389.079,678.181L389.679,671.801L386.599,671.701L377.059,671.391L377.049,671.391L374.709,671.311L370.739,693.651L377.429,694.271L379.199,688.071L381.669,694.671L385.209,695.001L399.379,696.321C399.499,696.331 399.629,696.341 399.749,696.341C400.888,696.342 401.974,695.854 402.729,695.001C403.309,694.366 403.664,693.557 403.739,692.701C403.858,691.395 403.326,690.111 402.319,689.271Z" style="fill:rgb(47,46,65);fill-rule:nonzero;"/>
    </g>
    <g transform="matrix(1,0,0,1,-110,90)">
        <path d="M426.189,557.661C422.799,576.111 408.449,619.371 399.769,644.691C395.819,656.261 393.059,664.091 393.059,664.091L388.559,662.671L388.549,662.671L380.939,660.271L378.169,659.391L378.159,659.391L374.799,658.321C374.799,658.321 375.189,637.661 375.229,617.741C375.259,609.391 375.219,601.161 375.059,594.641C374.879,587.531 374.569,582.441 374.059,581.431C371.949,577.291 375.479,576.851 379.209,575.811C382.949,574.761 380.029,573.181 378.579,569.821C377.599,567.581 379.529,564.591 380.899,562.891C381.277,562.412 381.681,561.955 382.109,561.521C382.537,561.086 381.449,561.291 380.269,560.891C383.829,556.331 386.889,552.301 386.889,552.301C386.889,552.301 386.949,550.141 387.039,546.701C387.169,541.611 387.359,533.701 387.559,525.781C387.549,525.771 387.549,525.771 387.559,525.771C387.629,522.791 387.699,519.811 387.769,516.981C393.489,521.371 399.049,525.671 404.089,529.651C404.101,529.66 404.109,529.675 404.109,529.691C416.219,539.261 425.309,546.941 426.589,549.381C427.169,550.481 426.969,553.421 426.189,557.661Z" style="fill:rgb(47,46,65);fill-rule:nonzero;"/>
    </g>
    <g transform="matrix(1,0,0,1,-110,90)">
        <path d="M724.317,231.894C727.762,231.572 730.881,234.086 731.297,237.52C731.332,237.859 731.34,238.2 731.319,238.539L751.941,247.346L751.154,259.382L724.209,244.264C721.335,243.865 719.073,241.562 718.727,238.681C718.702,238.457 718.689,238.232 718.689,238.007C718.689,234.895 721.057,232.252 724.15,231.91C724.205,231.904 724.261,231.898 724.317,231.894Z" style="fill:rgb(255,182,182);fill-rule:nonzero;"/>
    </g>
    <g transform="matrix(1,0,0,1,-110,90)">
        <path d="M864.619,306.191C864.11,303.858 863.163,301.642 861.829,299.661C861.458,299.097 861.054,298.556 860.619,298.041C858.999,296.111 857.489,294.341 856.089,292.761C855.239,291.771 854.409,290.851 853.629,290.001C849.099,285.031 846.129,282.401 844.769,282.181C844.109,282.071 843.459,281.991 842.829,281.911C839.599,281.511 837.259,281.221 837.189,277.811C837.182,277.322 837.215,276.834 837.289,276.351C837.41,275.539 837.587,274.738 837.819,273.951C837.952,273.505 838.056,273.05 838.129,272.591C838.229,272.001 838.189,271.561 837.869,271.291C837.469,270.961 836.799,271.011 835.539,271.511C835.339,271.591 835.109,271.681 834.869,271.791C834.789,271.821 834.709,271.861 834.619,271.901C834.459,271.971 834.279,272.051 834.099,272.141C832.589,272.861 830.259,272.951 827.599,272.681C819.749,271.881 809.129,267.921 808.999,267.871L742.119,241.881L741.499,242.881L740.029,245.261L739.519,246.081L738.939,247.021L736.409,251.101L735.129,253.161L756.729,269.451L759.079,271.221L761.099,272.751L802.339,303.861L817.719,314.011L821.149,316.27L835.769,325.911C838.853,327.948 842.469,329.035 846.165,329.035C852.668,329.035 858.729,325.67 862.169,320.151C864.764,315.993 865.643,310.984 864.619,306.191Z" style="fill:rgb(66,103,178);fill-rule:nonzero;"/>
    </g>
    <g transform="matrix(1,0,0,1,-110,90)">
        <path d="M960.365,696.999L239.635,696.999C239.086,696.999 238.635,696.548 238.635,695.999C238.635,695.45 239.086,694.999 239.635,694.999L960.365,694.999C960.914,694.999 961.365,695.45 961.365,695.999C961.365,696.548 960.914,696.999 960.365,696.999Z" style="fill:rgb(204,204,204);fill-rule:nonzero;"/>
    </g>
    <g transform="matrix(1,0,0,1,128.635,293.001)">
        <path d="M164.915,166.791L166.789,184.173L165.687,206.965L216.172,200.968L220.915,166.791L214.871,166.851L164.915,166.791Z" style="fill:rgb(255,182,182);fill-rule:nonzero;"/>
    </g>
    <g transform="matrix(1,0,0,1,-110,90)">
        <path d="M446.493,313.65L427.493,298.65L417.519,298.07L402.72,307.551L399.096,326.038L390.526,346.857L403.096,403.038C403.096,403.038 404.275,407.07 401.185,407.554C398.096,408.039 398.466,413.981 398.466,413.981C398.466,413.981 399.096,419.131 396.096,419.585C393.096,420.038 385.096,420.038 392.096,429.038C399.096,438.038 454.462,403.999 454.462,403.999L462.503,361.805C462.503,361.805 478.098,340.859 461.304,328.862L446.493,313.65Z" style="fill:rgb(230,230,230);fill-rule:nonzero;"/>
    </g>
    <g transform="matrix(1,0,0,1,-110,90)">
        <path d="M363.549,441.209C362.247,439.584 361.537,437.564 361.537,435.482C361.537,432.135 363.373,429.044 366.312,427.442L390.211,347.237L405.155,354.76L379.129,431.636C379.688,432.846 379.978,434.164 379.978,435.498C379.978,440.549 375.822,444.705 370.771,444.705C367.957,444.705 365.294,443.415 363.549,441.209L363.549,441.209Z" style="fill:rgb(160,97,106);fill-rule:nonzero;"/>
    </g>
    <g transform="matrix(1,0,0,1,-110,90)">
        <path d="M406.152,306.809C406.152,306.809 401.88,304.539 398.958,314.363C396.619,322.228 377.637,369.076 377.395,380.466C374.192,381.145 371.838,383.928 371.699,387.199L395.168,390.344C399.269,386.885 400.345,382.214 398.758,380.827L403.854,366.91L425.112,322.631L409.269,308.395L406.152,306.809Z" style="fill:rgb(230,230,230);fill-rule:nonzero;"/>
    </g>
    <g transform="matrix(1,0,0,1,-110,90)">
        <path d="M531.553,414.846C531.711,414.166 531.791,413.47 531.791,412.772C531.791,407.928 527.946,403.878 523.108,403.627L468.284,341.014L456.654,354.891L513.366,412.951C513.437,417.952 517.571,422.026 522.572,422.026C526.861,422.026 530.609,419.029 531.553,414.846L531.553,414.846Z" style="fill:rgb(160,97,106);fill-rule:nonzero;"/>
    </g>
    <g transform="matrix(1,0,0,1,-110,90)">
        <path d="M435.019,312.086C435.019,312.086 437.889,308.191 444.772,315.786C450.283,321.866 487.657,355.899 492.8,366.064C495.982,365.291 499.309,366.782 500.848,369.672L481.047,382.656C475.854,381.311 472.864,377.564 473.695,375.628L463.082,365.283L424.766,334.551L432.895,314.864L435.019,312.086Z" style="fill:rgb(230,230,230);fill-rule:nonzero;"/>
    </g>
    <g transform="matrix(1,0,0,1,128.635,293.001)">
        <circle cx="400.827" cy="140.998" r="140" style="fill:rgb(252,211,10);"/>
    </g>
    <g transform="matrix(1,0,0,1,-110,90)">
        <path d="M632.84,393.549C619.574,406.815 597.741,406.815 584.475,393.549L584.475,393.549C573.161,382.231 571.229,364.412 579.854,350.932L572.33,358.608C559.064,371.874 559.064,393.706 572.33,406.972L572.33,406.972C585.596,420.238 607.428,420.238 620.694,406.972L637.367,389.66L637.621,388.584L632.84,393.549Z" style="fill-opacity:0.2;fill-rule:nonzero;"/>
    </g>
    <g transform="matrix(1,0,0,1,-110,90)">
        <path d="M648.722,286.592C664.228,276.031 685.678,280.1 696.239,295.606L696.239,295.606C705.245,308.835 703.823,326.701 692.837,338.338L701.66,332.198C717.166,321.637 721.235,300.187 710.674,284.681L710.674,284.681C700.113,269.175 678.663,265.106 663.157,275.667L643.549,289.568L643.099,290.579L648.722,286.592Z" style="fill-opacity:0.2;fill-rule:nonzero;"/>
    </g>
    <g transform="matrix(1,0,0,1,-110,90)">
        <path d="M596.512,421.268C596.512,421.268 596.512,421.268 596.512,421.268C576.105,421.268 559.313,404.475 559.313,384.069C559.313,374.207 563.235,364.739 570.208,357.765L601.777,325.558C608.752,318.571 618.229,314.641 628.101,314.641C637.963,314.641 647.431,318.563 654.405,325.537C654.967,326.099 655.283,326.862 655.283,327.658C655.283,329.303 653.929,330.657 652.283,330.657C651.488,330.657 650.725,330.341 650.162,329.779C638.06,317.677 618.143,317.677 606.041,329.779C601.404,346.125 591.385,357.341 574.472,361.986C568.607,367.837 565.307,375.79 565.307,384.074C565.307,401.19 579.391,415.273 596.507,415.273C604.781,415.273 612.724,411.982 618.573,406.13C617.89,399.424 619.849,393.12 635.207,388.857C635.773,388.267 636.556,387.933 637.373,387.933C639.019,387.933 640.373,389.287 640.373,390.932C640.373,391.711 640.07,392.46 639.528,393.019L622.855,410.332C615.892,417.35 606.398,421.291 596.512,421.268Z" style="fill:white;fill-rule:nonzero;"/>
    </g>
    <g transform="matrix(1,0,0,1,-110,90)">
        <path d="M647.763,375.705C637.896,375.732 628.418,371.805 621.46,364.809C620.898,364.247 620.581,363.483 620.581,362.688C620.581,361.042 621.936,359.688 623.581,359.688C624.377,359.688 625.141,360.004 625.703,360.567C631.551,366.416 639.492,369.705 647.764,369.705C656.035,369.705 663.976,366.416 669.824,360.567C673.822,336.482 690.123,333.083 704.291,326.101C710.14,320.252 713.429,312.311 713.429,304.04C713.429,286.925 699.345,272.841 682.23,272.841C673.958,272.841 666.017,276.13 660.169,281.979C656.227,293.35 652.358,304.855 640.619,301.529C640.056,302.091 639.293,302.407 638.497,302.407C636.852,302.407 635.498,301.053 635.498,299.408C635.498,298.612 635.814,297.849 636.376,297.287L655.926,277.737C662.899,270.763 672.368,266.841 682.23,266.841C702.636,266.841 719.428,283.633 719.428,304.04C719.428,313.902 715.506,323.37 708.533,330.343L674.067,364.81C667.109,371.806 657.631,375.732 647.763,375.705Z" style="fill:white;fill-rule:nonzero;"/>
    </g>
    <g transform="matrix(1,0,0,1,-110,90)">
        <path d="M761.099,272.751C755.219,262.765 748.144,253.534 740.029,245.261C738.219,243.421 736.349,241.621 734.439,239.871C733.379,238.901 732.309,237.951 731.219,237.021C729.149,235.241 727.019,233.521 724.849,231.861C700.34,213.113 670.316,202.966 639.459,203.001C561.719,203.001 498.459,266.251 498.459,344.001C498.455,352.574 499.235,361.129 500.789,369.561C500.791,369.608 500.798,369.655 500.809,369.701C501.519,373.571 502.399,377.391 503.419,381.141C520.108,442.275 576.061,485.001 639.432,485.001C688.11,485.001 733.468,459.791 759.169,418.451C761.119,415.311 762.952,412.091 764.669,408.791C786.903,365.887 785.553,314.429 761.099,272.751ZM639.459,483.001C639.443,483.001 639.427,483.001 639.411,483.001C563.184,483.001 500.459,420.276 500.459,344.049C500.459,344.033 500.459,344.017 500.459,344.001C500.459,267.351 562.819,205.001 639.459,205.001C676.913,205.022 712.811,220.185 738.939,247.021C742.313,250.465 745.498,254.091 748.479,257.881C751.43,261.59 754.184,265.452 756.729,269.451C778.178,303.147 784.086,344.507 772.929,382.861C771.699,387.101 770.259,391.251 768.639,395.321C767.009,399.401 765.199,403.401 763.199,407.281C739.392,453.605 691.542,482.885 639.459,483.001Z" style="fill:rgb(63,61,86);fill-rule:nonzero;"/>
    </g>
    <g transform="matrix(1,0,0,1,128.635,293.001)">
        <path d="M592.636,472.969L583.445,472.891L579.376,436.612L592.942,436.727L592.636,472.969Z" style="fill:rgb(255,182,182);fill-rule:nonzero;"/>
    </g>
    <g transform="matrix(1,0,0,1,-110,90)">
        <path d="M833.709,671.731L831.309,671.571L821.519,670.901L818.369,670.691L818.309,677.261L803.629,687.221C802.504,687.985 801.828,689.26 801.828,690.621C801.828,692.864 803.665,694.714 805.909,694.731L824.179,694.881L827.379,688.401L828.549,694.921L835.449,694.98L833.709,671.731Z" style="fill:rgb(47,46,65);fill-rule:nonzero;"/>
    </g>
    <g transform="matrix(1,0,0,1,128.635,293.001)">
        <path d="M689.407,466.253L680.622,468.954L665.792,435.596L678.759,431.61L689.407,466.253Z" style="fill:rgb(255,182,182);fill-rule:nonzero;"/>
    </g>
    <g transform="matrix(1,0,0,1,-110,90)">
        <path d="M929.088,664.481L926.749,665.051L917.219,667.361L914.149,668.111L916.079,674.401L905.088,688.321C904.518,689.046 904.208,689.942 904.208,690.864C904.208,693.12 906.063,694.977 908.319,694.98C908.726,694.98 909.13,694.919 909.519,694.801L926.989,689.431L928.079,682.281L931.169,688.141L937.759,686.111L929.088,664.481Z" style="fill:rgb(47,46,65);fill-rule:nonzero;"/>
    </g>
    <g transform="matrix(1,0,0,1,-110,90)">
        <path d="M812.783,370.917L795.243,421.891L794.664,425.97C790.244,430.166 795.796,431.548 793.715,432.655C791.633,433.762 790.233,436.864 793.038,437.418C795.844,437.972 804.888,636.791 816.819,644.511C828.749,652.231 836.01,657.814 833.819,646.511C832.936,641.957 834.185,617.539 835.991,590.003C836.195,586.882 839.429,583.579 836.624,580.545C833.819,577.511 836.97,575.514 837.146,572.996C839.662,537.039 842.568,501.54 842.568,501.54C842.568,501.54 861.162,565.397 865.99,560.454C870.819,555.511 868.908,567.682 870.383,571.319C871.616,574.358 866.355,580.328 874.087,580.419C881.819,580.511 899.977,642.581 901.819,642.511C905.468,642.372 915.727,642.765 921.819,641.511C924.827,640.892 911.473,593.898 900.323,553.318C899.433,550.082 894.594,550.007 897.706,543.759C900.819,537.511 885.332,497.085 886.661,495.215C890.188,490.252 891.532,488.095 888.053,487.77C884.574,487.445 883.546,489.353 883.358,484.539C883.17,479.725 882.57,467.854 882.57,467.854C882.57,467.854 880.05,420.905 862.404,394.967L860.899,379.555L812.783,370.917Z" style="fill:rgb(47,46,65);fill-rule:nonzero;"/>
    </g>
    <g transform="matrix(1,0,0,1,-110,90)">
        <path d="M856.604,273.595L833.343,276.907L831.939,293.75L820.461,311.705C820.461,311.705 794.947,329.66 812.741,358.024C805.97,382.457 799.237,405.889 792.819,421.511C787.819,452.511 832.612,455.482 883.819,444.511C883.819,444.511 883.113,431.256 878.466,424.883C873.819,418.511 876.348,417.119 876.348,417.119L873.102,405.214C874.939,388.006 868.735,386.461 865.819,378.511L874.671,296.016L856.604,273.595Z" style="fill:rgb(66,103,178);fill-rule:nonzero;"/>
    </g>
    <g transform="matrix(1,0,0,1,-110,90)">
        <path d="M744.94,417.787C745.449,414.365 748.635,411.936 752.069,412.352C752.407,412.398 752.739,412.472 753.064,412.573L766.538,394.65L778.039,398.286L756.927,420.844C755.853,423.54 753.076,425.187 750.196,424.836C747.158,424.436 744.863,421.818 744.863,418.754C744.863,418.486 744.88,418.219 744.915,417.953C744.923,417.898 744.931,417.842 744.94,417.787Z" style="fill:rgb(255,182,182);fill-rule:nonzero;"/>
    </g>
    <g transform="matrix(1,0,0,1,-110,90)">
        <path d="M864.619,306.191C864.289,305.781 863.929,305.381 863.549,304.991C858.155,299.431 849.857,297.742 842.719,300.751C842.379,300.891 842.039,301.051 841.709,301.211C829.759,307.081 823.309,310.991 822.529,312.821C822.259,313.441 822.029,314.051 821.799,314.641C821.579,315.221 821.369,315.771 821.149,316.271C820.229,318.411 819.169,319.741 816.469,319.141C815.573,318.922 814.71,318.589 813.899,318.151C813.529,317.971 813.189,317.781 812.869,317.601C811.709,316.961 810.869,316.501 810.299,316.921C809.749,317.331 809.729,318.371 810.229,320.781C810.394,321.787 810.367,322.815 810.149,323.811C809.488,326.715 808.452,329.522 807.069,332.161C804.996,336.297 802.665,340.298 800.089,344.141L776.299,378.061L774.689,380.351L772.929,382.861L758.889,402.881L759.719,403.73L763.199,407.281L763.969,408.071L764.669,408.791L766.479,410.641L768.179,412.371L806.109,381.471L810.339,378.021L817.919,371.841L833.449,359.191L862.839,331.991C866.586,328.551 868.772,323.726 868.889,318.641C868.889,318.471 868.899,318.311 868.899,318.141C868.91,313.781 867.395,309.552 864.619,306.191Z" style="fill:rgb(66,103,178);fill-rule:nonzero;"/>
    </g>
    <g transform="matrix(1,0,0,1,128.635,293.001)">
        <circle cx="604.004" cy="43.989" r="25.992" style="fill:rgb(255,182,182);"/>
    </g>
    <g transform="matrix(1,0,0,1,-110,90)">
        <path d="M877.084,283.031C880.572,288.024 882.906,293.73 883.915,299.736C881.104,301.535 877.831,302.479 874.494,302.456C874.381,302.019 874.268,301.582 874.138,301.145C873.171,297.76 871.733,294.529 869.865,291.546C870.121,294.763 869.685,297.997 868.586,301.031C866.822,300.23 864.933,299.742 863.001,299.591C861.428,299.591 859.877,299.956 858.469,300.659C856.834,295.236 855.329,290.251 854.26,286.673C854.228,295.641 841.084,303.459 826.743,302.326C826.225,302.003 831.421,287.256 830.919,286.916C829.769,286.156 828.653,285.33 827.536,284.521C832.23,277.269 837.329,269.499 836.455,268.334C836.519,269.774 831.372,276.702 825.771,283.242C822.663,280.96 840.323,243.826 831.599,240.816C831.453,242.127 829.527,242.127 827.18,241.852C826.56,239.688 825.64,237.623 824.444,235.717C824.599,237.637 824.368,239.569 823.764,241.398C821.446,241.399 819.135,241.643 816.869,242.127C816.344,241.302 815.765,240.512 815.137,239.763C815.198,240.676 815.171,241.592 815.056,242.499C812.741,243.001 810.831,243.584 810.556,244.053C808.743,243.389 811.834,240.395 810.701,238.841C807.82,234.956 812.093,229.291 814.797,225.276C820.349,217.053 832.538,214.204 841.165,219.141C841.554,217.798 843.545,216.907 846.102,216.309C847.186,216.07 848.295,215.966 849.404,216.001C860.412,216.195 875.692,225.276 876.291,236.267C876.34,237.368 876.421,238.566 876.501,239.844C877.278,252.147 876.323,263.494 884.724,272.494C887.768,275.747 887.8,291.157 886.635,299.089C883.608,295.9 881.455,283.501 877.084,283.031Z" style="fill:rgb(47,46,65);fill-rule:nonzero;"/>
    </g>
    <g transform="matrix(1,0,0,1,128.635,293.001)">
        <circle cx="352.184" cy="141.51" r="3" style="fill:rgb(252,211,10);"/>
    </g>
    <g transform="matrix(1,0,0,1,128.635,293.001)">
        <circle cx="447.184" cy="139.51" r="3" style="fill:rgb(252,211,10);"/>
    </g>
    <g transform="matrix(1,0,0,1,-110,90)">
        <path d="M400.249,257.798C397.966,263.484 391.525,274.666 390.653,280.766L391.045,280.38C391.794,281.659 392.646,282.876 393.591,284.019C395.284,282.24 397.33,280.833 399.597,279.889C398.359,282.429 397.642,285.192 397.489,288.013C399.919,295.633 411.157,292.24 417.741,291.408C424.315,298.928 433.063,300.891 444.518,296.567C447.721,296.897 451.308,297.097 453.553,295.204C455.798,293.311 454.461,289.805 455.668,287.154C464.272,268.267 456.332,261.453 449.586,252.889C448.102,251.004 448.108,248.191 446.301,246.393C443.795,243.901 439.953,243.134 436.411,242.52C438.28,242.619 440.071,241.733 441.126,240.187C442.054,238.626 442.029,236.669 441.062,235.133C439.795,233.032 437.163,231.811 434.623,231.506C432.121,231.336 429.608,231.552 427.172,232.146C425.593,232.354 424.065,232.843 422.659,233.589C421.304,234.312 420.535,235.809 420.736,237.332C421.165,238.725 422.208,239.849 423.565,240.38C424.588,240.813 425.663,241.107 426.763,241.256C421.711,240.6 416.577,241.499 412.048,243.832C406.371,246.86 402.54,252.115 400.249,257.798Z" style="fill:rgb(47,46,65);fill-rule:nonzero;"/>
    </g>
    <g transform="matrix(1,0,0,1,128.635,293.001)">
        <circle cx="192.353" cy="66.382" r="20.293" style="fill:rgb(160,97,106);"/>
    </g>
    <g transform="matrix(1,0,0,1,-110,90)">
        <path d="M411.462,258.503C412.638,262.059 416.001,263.205 419.108,263.919C420.088,264.148 421.074,264.36 422.069,264.55C422.436,264.091 422.827,263.641 423.235,263.216C424.928,261.437 426.974,260.03 429.241,259.086C428.261,261.092 427.609,263.244 427.311,265.457C429.19,265.73 431.079,265.952 432.979,266.125C436.297,266.831 439.631,264.786 440.504,261.508C442.234,264.336 444.278,266.999 447.075,268.122C450.348,269.298 454.03,268.197 456.12,265.416C457.732,263.2 458.85,260.664 459.398,257.98C460.192,254.831 460.632,251.203 459.074,249.205C457.826,247.588 455.673,247.559 453.686,247.703C449.302,248.039 444.963,248.825 440.739,250.05L440.382,250.854C441.108,246.493 439.533,242.297 436.62,240.805C434.655,239.808 432.291,239.975 429.994,240.177C427.043,240.309 424.128,240.873 421.341,241.851C418.144,243.08 415.405,245.268 413.499,248.114C411.46,251.21 410.447,255.432 411.462,258.503Z" style="fill:rgb(47,46,65);fill-rule:nonzero;"/>
    </g>
    <g transform="matrix(1,0,0,1,-110,90)">
        <path d="M440.391,239.536C440.191,239.477 440.709,239.553 440.529,239.558C440.619,239.553 440.708,239.54 440.795,239.521C440.81,239.518 441.012,239.453 440.878,239.501C441.179,239.41 441.448,239.235 441.652,238.995C442.128,238.406 442.502,237.74 442.758,237.027C443.08,236.083 443.599,235.219 444.279,234.49C444.605,234.163 445.049,233.978 445.512,233.978C446.16,233.978 446.756,234.34 447.055,234.914C447.312,235.85 447.224,236.848 446.808,237.724C446.517,238.616 446.084,239.456 445.526,240.21C444.59,241.443 443.316,242.378 441.859,242.9C440.172,243.513 438.332,243.565 436.614,243.05C436.141,242.854 435.832,242.39 435.832,241.879C435.832,241.388 436.118,240.939 436.563,240.731L439.43,239.557C439.589,239.487 439.762,239.451 439.936,239.451C440.625,239.451 441.191,240.017 441.191,240.706C441.191,241.203 440.896,241.655 440.441,241.855L437.574,243.029L437.524,240.71C437.881,240.813 438.25,240.876 438.621,240.897C439.018,240.937 439.418,240.92 439.81,240.847C440.185,240.798 440.554,240.708 440.91,240.579C441.138,240.496 441.361,240.401 441.58,240.295C441.659,240.257 441.737,240.217 441.815,240.175C441.81,240.178 442.143,239.984 441.997,240.075C442.368,239.838 442.716,239.567 443.036,239.266C443.149,239.159 443.254,239.043 443.348,238.919C443.511,238.718 443.663,238.508 443.801,238.29C444.084,237.827 444.307,237.332 444.467,236.814C444.54,236.597 444.602,236.375 444.652,236.151C444.665,236.028 444.688,235.907 444.718,235.787C444.825,235.501 444.698,235.954 444.82,236.077L445.349,236.467C445.55,236.527 445.767,236.492 445.939,236.372C446.002,236.284 445.988,236.299 445.898,236.416C445.794,236.554 445.698,236.699 445.612,236.849C445.422,237.203 445.251,237.566 445.098,237.937C444.783,238.726 444.384,239.479 443.909,240.183C442.956,241.641 441.163,242.326 439.481,241.876C438.843,241.622 438.522,240.893 438.766,240.251C439.026,239.619 439.749,239.301 440.391,239.536Z" style="fill:rgb(47,46,65);fill-rule:nonzero;"/>
    </g>
</svg>
