<?xml version="1.0" encoding="UTF-8" standalone="no"?>
<!DOCTYPE svg PUBLIC "-//W3C//DTD SVG 1.1//EN" "http://www.w3.org/Graphics/SVG/1.1/DTD/svg11.dtd">
<svg width="100%" height="100%" viewBox="0 0 1200 1200" version="1.1" xmlns="http://www.w3.org/2000/svg" xmlns:xlink="http://www.w3.org/1999/xlink" xml:space="preserve" xmlns:serif="http://www.serif.com/" style="fill-rule:evenodd;clip-rule:evenodd;stroke-linejoin:round;stroke-miterlimit:2;">
    <g id="Path_83" transform="matrix(1.42683,0,0,1.42683,-255.759,-34.7434)">
        <path d="M1017.81,560.461C1012.54,605.611 1001.59,641.861 986.56,670.771C966.56,709.291 932.35,724.811 901.79,741.051C892.959,745.735 883.778,749.727 874.33,752.991C818.72,772.291 756.48,767.171 707.59,756.981C673.299,749.828 638.492,745.427 603.5,743.821C593.52,743.371 583.53,743.148 573.53,743.151C558.11,743.171 280.46,748.441 212.86,611.581C196.17,577.821 184.73,536.581 180.62,486.311C168.99,344.191 232.91,250.851 315.36,189.841C471.33,74.431 685.12,79.271 838.79,197.721C941.15,276.621 1036.99,396.031 1017.81,560.461Z" style="fill:rgb(242,242,242);fill-rule:nonzero;"/>
    </g>
    <g transform="matrix(1,0,0,1,166.595,378.466)">
        <path d="M828.335,244.952L825.62,266.574L818.88,320.278L683.498,320.278C684.555,308.241 686,290.916 687.544,272.213C687.696,270.345 687.856,268.465 688.008,266.574C691.88,219.56 696.116,166.358 696.116,166.358L713.915,169.673L748.447,176.095L762.518,178.71L800.2,185.726C818.987,189.217 831.91,216.419 828.335,244.952L828.335,244.952Z" style="fill:rgb(242,242,242);fill-rule:nonzero;"/>
    </g>
    <g transform="matrix(1,0,0,1,166.595,378.466)">
        <path d="M725.93,79.358L742.579,108.492L710.58,131.169L696.93,95.358L725.93,79.358Z" style="fill:rgb(255,182,182);fill-rule:nonzero;"/>
    </g>
    <g transform="matrix(1,0,0,1,166.595,378.466)">
        <circle cx="704.735" cy="65.675" r="41.244" style="fill:rgb(255,182,182);"/>
    </g>
    <g transform="matrix(1,0,0,1,166.595,378.466)">
        <path d="M701.774,74.896C698.499,69.912 699.784,67.305 697.043,65.473C697.043,65.473 695.939,64.736 688.043,64.316C686.275,51.592 684.069,50.049 684.068,50.049C681.525,48.27 677.75,48.848 675.402,49.936C670.436,52.236 671.011,57.205 667.667,58.156C663.048,59.47 654.643,52.065 653.815,43.587C653.14,36.672 657.595,29.956 659.362,30.311C661.114,30.663 665.309,25.308 667.574,25.391C669.121,25.447 675.441,22.7 677.141,22.915C678.998,23.15 685.119,26.344 685.374,25.614C687.147,20.542 686.626,19.135 688.13,17.684C690.796,15.113 695.156,16.903 701.997,17.865C716.071,19.842 718.527,15.202 725.74,18.347C729.384,19.936 732.432,24.221 738.381,32.727C746.7,44.622 750.86,50.57 750.887,57.506C750.914,64.581 747.488,64.132 745.983,74.605C744.308,86.263 747.867,91.594 743.979,95.381C740.974,98.309 734.866,99.004 731.657,96.434C726.163,92.036 733.353,81.422 727.273,73.668C723.541,68.908 716.035,66.79 712.597,69.143C708.709,71.803 710.851,79.612 708.117,80.353C705.776,80.987 702.345,75.764 701.774,74.896L701.774,74.896Z" style="fill:rgb(47,46,65);fill-rule:nonzero;"/>
    </g>
    <g transform="matrix(1,0,0,1,166.595,378.466)">
        <path d="M797.85,237.338C796.7,257.008 792.13,263.217 790.53,286.447C790.18,291.548 789.97,297.467 789.97,304.528C789.97,306.327 789.98,308.068 789.98,309.768C789.98,313.387 789.911,316.808 789.49,320.278C789.17,323.048 788.621,325.838 787.71,328.778L698.88,328.778C698.871,328.758 698.871,328.738 698.86,328.717C698.34,326.458 698.01,324.298 697.76,322.228C697.68,321.568 697.61,320.918 697.55,320.278C697.47,319.528 697.4,318.788 697.331,318.058C697.06,315.148 696.791,312.398 696.15,309.768C695.291,306.137 693.73,302.717 690.53,299.418C689.22,298.068 687.911,297.018 686.63,296.098C686.38,295.927 686.14,295.758 685.89,295.588C682.35,293.157 679.001,291.407 676.1,286.447C676.05,286.378 676.01,286.298 675.97,286.228C675.47,285.358 674.17,283.077 673.23,280.038C672.24,276.878 671.64,272.907 672.72,268.848C675.291,259.228 684.81,258.268 692.59,248.548C693.43,247.498 694.26,246.338 695.05,245.048C698.57,239.327 699.52,234.288 700.64,228.298C700.82,227.327 700.98,226.367 701.11,225.438C701.21,224.738 701.3,224.048 701.371,223.367C701.99,217.657 701.69,212.738 700.96,208.338C698.581,193.927 691.56,185.008 696.52,172.077C698.081,168.018 700.291,164.968 702.52,162.358C707.24,156.827 712.09,153.238 711.251,146.098C710.4,138.898 704.94,137.907 704.331,131.617C704.02,128.438 705.06,125.088 707.01,121.798L707.01,121.788C713.251,111.197 728.831,101.447 738.73,101.758C740.56,101.808 742.18,102.217 743.53,103.008C748.42,105.887 746.38,112.177 753.871,120.998C759.44,127.548 765.74,130.168 768.13,131.407C777.6,136.348 785.3,150.918 790.53,169.548C790.57,169.688 790.61,169.827 790.65,169.978C793.88,181.648 796.161,194.898 797.291,208.338C797.77,214.028 798.05,219.748 798.11,225.407C798.161,229.927 798.06,233.848 797.85,237.338L797.85,237.338Z" style="fill:rgb(252,211,10);fill-rule:nonzero;"/>
    </g>
    <g transform="matrix(1,0,0,1,166.595,378.466)">
        <path d="M731.331,304.728L729.52,309.768L728.38,312.927L725.74,320.278L722.68,328.778L703.01,328.778L706.31,320.278L707.84,316.318L710.38,309.768L714.64,298.768L731.331,304.728Z" style="fill:rgb(255,182,182);fill-rule:nonzero;"/>
        <path d="M790.84,167.827C790.791,168.478 790.72,169.197 790.65,169.978C789.871,177.918 788.03,192.128 785.34,208.338C783.92,216.887 782.26,225.998 780.39,235.048C776.371,254.577 771.371,273.808 765.72,286.447C764.71,288.728 763.67,290.788 762.61,292.608C761.8,293.998 760.95,295.367 760.06,296.718C757.18,301.148 753.95,305.348 750.6,309.268C750.47,309.438 750.32,309.598 750.17,309.768C749.63,310.407 749.07,311.038 748.51,311.668C745.77,314.758 742.97,317.637 740.26,320.278C736.96,323.498 733.78,326.348 730.93,328.778L698.99,328.778L698.86,328.717L694.26,326.677C694.26,326.677 695.57,325.137 697.76,322.228C698.21,321.637 698.69,320.988 699.21,320.278C699.85,319.407 700.541,318.447 701.28,317.407C702.82,315.228 704.57,312.668 706.45,309.768C710.09,304.157 714.24,297.258 718.43,289.268C718.911,288.338 719.4,287.398 719.89,286.447C719.9,286.418 719.92,286.387 719.93,286.358C720.76,284.738 721.581,283.068 722.4,281.367C729.35,266.907 731.34,254.907 731.911,251.018C732.71,245.518 733.82,237.827 733.52,229.367C733.32,223.788 732.51,217.887 730.581,212.028L730.581,212.018C730.18,210.788 729.73,209.558 729.22,208.338C728.31,206.148 727.23,203.988 725.95,201.858C720.3,192.478 715.71,192.088 712.06,181.867C710.98,178.838 708.53,171.998 709.28,164.778L709.28,164.768C709.371,163.878 709.52,162.978 709.72,162.077L709.72,162.068C709.77,161.818 709.84,161.558 709.911,161.308C710.48,159.098 711.42,156.907 712.85,154.827C715.64,150.788 719.45,148.387 722.86,146.958L722.871,146.947C726.81,145.308 730.21,144.958 730.871,144.898C745.48,143.598 756.81,155.878 763.001,162.588C765.39,165.177 767.581,167.348 769.581,169.117C785.15,183.018 789.42,174.137 790.53,169.548C790.7,168.838 790.791,168.228 790.84,167.827L790.84,167.827Z" style="fill:rgb(252,211,10);fill-rule:nonzero;"/>
        <path d="M790.89,167.308C790.89,167.358 790.88,167.528 790.84,167.808C790.86,167.657 790.871,167.508 790.88,167.367C790.88,167.338 790.88,167.318 790.89,167.308L790.89,167.308Z" style="fill:rgb(252,211,10);fill-rule:nonzero;"/>
    </g>
    <g transform="matrix(1,0,0,1,166.595,378.466)">
        <path d="M711.47,378.318L175.42,378.318C170.44,378.318 166.38,382.367 166.38,387.348C166.38,392.338 170.44,396.387 175.42,396.387L711.47,396.387C716.45,396.387 720.5,392.338 720.5,387.348C720.5,382.367 716.45,378.318 711.47,378.318Z" style="fill:rgb(165,165,165);fill-rule:nonzero;"/>
    </g>
    <g transform="matrix(1,0,0,1,166.595,378.466)">
        <path d="M592.51,424.998L294.37,424.998C289.39,424.998 285.34,429.048 285.34,434.028C285.34,439.008 289.39,443.068 294.37,443.068L592.51,443.068C597.49,443.068 601.55,439.008 601.55,434.028C601.55,429.048 597.49,424.998 592.51,424.998Z" style="fill:rgb(165,165,165);fill-rule:nonzero;"/>
    </g>
    <g transform="matrix(1,0,0,1,166.595,378.466)">
        <path d="M235.069,81.275L268.853,67.057L283.344,96.762L247.842,111.253L235.069,81.275Z" style="fill:rgb(255,182,182);fill-rule:nonzero;"/>
    </g>
    <g transform="matrix(1,0,0,1,166.595,378.466)">
        <path d="M235.069,81.275L268.853,67.057L283.344,96.762L247.842,111.253L235.069,81.275Z" style="fill-opacity:0.1;fill-rule:nonzero;"/>
    </g>
    <g transform="matrix(1,0,0,1,166.595,378.466)">
        <path d="M239.872,69.955L273.2,108.355C273.2,108.355 250.015,181.532 226.831,188.052C203.646,194.573 160.899,226.452 160.899,226.452L107.284,191.675L133.367,153.275C133.367,153.275 196.401,67.057 213.065,67.057C229.729,67.057 239.872,69.955 239.872,69.955L239.872,69.955Z" style="fill:rgb(252,211,10);fill-rule:nonzero;"/>
    </g>
    <g transform="matrix(1,0,0,1,166.595,378.466)">
        <path d="M194.843,320.278L117.261,320.278L112.356,313.721L92.33,286.95L87.722,280.791C87.722,280.791 70.334,248.912 73.956,219.931C77.579,190.951 115.254,184.43 115.254,184.43L116.805,184.43L162.928,224.96L160.175,262.678L174.781,286.95L194.843,320.278Z" style="fill:rgb(47,46,65);fill-rule:nonzero;"/>
    </g>
    <g transform="matrix(1,0,0,1,166.595,378.466)">
        <path d="M133.15,320.278L112.356,320.278L112.356,289.486L133.15,320.278Z" style="fill:rgb(47,46,65);fill-rule:nonzero;"/>
    </g>
    <g transform="matrix(1,0,0,1,166.595,378.466)">
        <path d="M581.644,273.532L579.058,286.95L572.638,320.278L443.681,320.278C444.688,312.808 446.064,302.056 447.535,290.449C447.68,289.29 447.832,288.124 447.977,286.95C451.665,257.773 455.7,224.757 455.7,224.757L472.654,226.814L505.547,230.799L518.951,232.422L554.844,236.777C572.74,238.943 585.049,255.824 581.644,273.532L581.644,273.532Z" style="fill:rgb(242,242,242);fill-rule:nonzero;"/>
    </g>
    <g transform="matrix(1,0,0,1,166.595,378.466)">
        <path d="M764.144,320.278L694.199,320.278C695.264,319.024 695.865,318.3 695.865,318.3L716.833,314.837L760.036,307.707C760.036,307.707 762.007,312.801 764.144,320.278L764.144,320.278Z" style="fill:rgb(47,46,65);fill-rule:nonzero;"/>
    </g>
    <g transform="matrix(1,0,0,1,166.595,378.466)">
        <path d="M467.455,95.766L497.873,138.784L444.814,140.369L439.119,99.942L467.455,95.766Z" style="fill:rgb(160,97,106);fill-rule:nonzero;"/>
    </g>
    <g transform="matrix(1,0,0,1,166.595,378.466)">
        <path d="M467.455,95.766L497.873,138.784L444.814,140.369L439.119,99.942L467.455,95.766Z" style="fill-opacity:0.1;fill-rule:nonzero;"/>
    </g>
    <g id="uuid-ae755ff6-bb09-410e-86b1-7d1b81a37005-412" transform="matrix(1,0,0,1,166.595,378.466)">
        <path d="M317.446,184.896C313.543,173.637 304.57,166.525 297.405,169.01C290.24,171.495 287.597,182.635 291.503,193.898C293.002,198.418 295.561,202.514 298.967,205.842L316.107,253.339L338.224,244.821L318.979,198.902C319.594,194.178 319.068,189.375 317.446,184.896L317.446,184.896Z" style="fill:rgb(160,97,106);fill-rule:nonzero;"/>
    </g>
    <g transform="matrix(1,0,0,1,166.595,378.466)">
        <path d="M523.347,162.977L523.306,206.817L519.227,223.011L510.837,256.317L504.729,286.95L500.179,309.772L498.556,317.923C497.331,318.742 496.114,319.524 494.897,320.278L388.921,320.278C382.9,316.663 379.531,313.851 379.531,313.851C379.531,313.851 381.198,312.286 383.103,309.772C386.32,305.527 390.211,298.571 387.827,291.927C387.327,290.536 387.197,288.841 387.349,286.95C388.32,274.474 401.405,253.375 401.405,253.375L398.695,222.061L397.507,208.339L405.884,141.429L433.192,125.555L437.906,125.099L484.442,122.585L503.677,123.693L504.553,123.932L523.347,162.977L523.347,162.977Z" style="fill:rgb(66,103,178);fill-rule:nonzero;"/>
    </g>
    <g transform="matrix(1,0,0,1,166.595,378.466)">
        <path d="M525.414,320.278L502.229,320.278L501.208,309.772L501.186,309.562L507.75,309.113L524.827,307.947L525.124,314.235L525.356,319.061L525.414,320.278Z" style="fill:rgb(255,182,182);fill-rule:nonzero;"/>
        <path d="M531.121,173.576L540.861,230.72L532.913,286.95L531.674,295.702L529.486,311.156L528.812,315.909L528.834,316.423L529,320.278L501.469,320.278L500.454,309.772L500.367,308.83L498.295,287.312L498.259,286.95L493.861,241.319L502.483,208.339L503.12,205.912L503.12,205.905L506.872,149.435L503.966,123.773L503.937,123.534C503.995,123.57 504.046,123.606 504.104,123.642C504.256,123.736 504.408,123.831 504.553,123.932C521.478,134.67 531.563,153.507 531.121,173.576L531.121,173.576Z" style="fill:rgb(66,103,178);fill-rule:nonzero;"/>
    </g>
    <g transform="matrix(1,0,0,1,166.595,378.466)">
        <path d="M415.748,152.379L405.16,141.428C405.16,141.428 382.496,151.646 381.366,157.314C380.236,162.983 340.22,246.24 340.22,246.24L322.81,199.741L300.148,214.871C300.148,214.871 318.332,287.063 335.338,290.452C352.344,293.842 409.339,205.006 409.339,205.006L415.748,152.379L415.748,152.379Z" style="fill:rgb(66,103,178);fill-rule:nonzero;"/>
    </g>
    <g transform="matrix(1,0,0,1,166.595,378.466)">
        <path d="M845.64,286.447L21.16,286.447C9.49,286.447 0,295.947 0,307.617C0,319.287 9.49,328.778 21.16,328.778L845.64,328.778C857.31,328.778 866.81,319.288 866.81,307.617C866.81,295.947 857.31,286.447 845.64,286.447Z" style="fill:rgb(165,165,165);fill-rule:nonzero;"/>
    </g>
    <g transform="matrix(1,0,0,1,166.595,378.466)">
        <path d="M518.522,221.94L516.919,296.742C516.764,303.983 510.85,309.772 503.607,309.772L366.004,309.772C358.933,309.772 353.095,304.245 352.709,297.184L348.619,222.381C348.202,214.753 354.275,208.339 361.915,208.339L505.21,208.339C512.675,208.339 518.682,214.476 518.522,221.94Z" style="fill:rgb(63,61,86);fill-rule:nonzero;"/>
    </g>
    <g transform="matrix(1,0,0,1,166.595,378.466)">
        <circle cx="296.385" cy="66.41" r="32.922" style="fill:rgb(255,182,182);"/>
    </g>
    <g transform="matrix(1,0,0,1,166.595,378.466)">
        <path d="M241.321,152.551L244.944,191.675L269.578,290.935L248.296,298.394L212.34,190.226L207.374,146.755L241.321,152.551Z" style="fill:rgb(255,182,182);fill-rule:nonzero;"/>
    </g>
    <g transform="matrix(1,0,0,1,166.595,378.466)">
        <path d="M231.522,221.94L229.919,296.742C229.764,303.983 223.85,309.772 216.607,309.772L79.004,309.772C71.933,309.772 66.095,304.245 65.709,297.184L61.619,222.381C61.202,214.753 67.275,208.339 74.915,208.339L218.21,208.339C225.675,208.339 231.682,214.476 231.522,221.94Z" style="fill:rgb(63,61,86);fill-rule:nonzero;"/>
    </g>
    <g transform="matrix(1,0,0,1,166.595,378.466)">
        <ellipse cx="273.5" cy="298.778" rx="26" ry="11.5" style="fill:rgb(255,182,182);"/>
    </g>
    <g transform="matrix(1,0,0,1,166.595,378.466)">
        <path d="M190.242,158.532L205.095,79.374C205.095,79.374 246.393,73.578 247.842,87.344C249.291,101.11 246.806,168.386 246.806,168.386L190.242,158.532L190.242,158.532Z" style="fill:rgb(252,211,10);fill-rule:nonzero;"/>
    </g>
    <g transform="matrix(1,0,0,1,166.595,378.466)">
        <path d="M283.095,71.586C283.095,71.586 303.461,64.318 312.051,60.407C320.642,56.496 337.708,83.773 338.088,69.367C338.468,54.961 332.57,48.92 332.57,48.92C332.57,48.92 331.098,17.405 299.347,21.345C299.347,21.345 306.331,5.578 283.406,3.14C260.482,0.702 224.817,56.061 228.011,64.334C231.205,72.607 235.034,79.447 225.972,88.292C216.91,97.138 199.942,147.062 212.852,160.496C225.762,173.93 226.61,179.759 217.764,188.117C208.918,196.475 188.01,214.647 210.617,217.802C233.224,220.957 208.549,218.601 225.402,203.776C242.256,188.951 266.85,189.556 257.667,165.771C248.484,141.986 264.438,107.902 262.442,102.731C260.446,97.561 266.914,64.726 266.914,64.726C266.914,64.726 281.969,62.514 283.095,71.586L283.095,71.586Z" style="fill:rgb(47,46,65);fill-rule:nonzero;"/>
    </g>
    <g transform="matrix(1,0,0,1,166.595,378.466)">
        <circle cx="451.191" cy="75.499" r="35.838" style="fill:rgb(160,97,106);"/>
        <path d="M454.051,27.317C453.014,27.923 451.625,27.007 451.293,25.853C450.96,24.699 451.347,23.474 451.732,22.337L453.665,16.609C455.037,12.548 456.492,8.344 459.462,5.252C463.945,0.586 471.069,-0.601 477.483,0.259C485.718,1.363 493.844,5.823 497.674,13.198C501.503,20.572 499.873,30.862 492.953,35.464C502.815,46.767 506.253,59.364 505.71,74.355C505.167,89.346 488.831,103.143 478.177,113.703C475.798,112.261 473.635,105.502 474.944,103.047C476.252,100.592 474.377,97.747 475.998,95.485C477.618,93.224 478.974,96.825 477.336,94.576C476.302,93.157 480.336,89.893 478.8,89.043C471.368,84.935 468.896,75.672 464.229,68.579C458.599,60.023 448.963,54.228 438.766,53.267C433.149,52.737 427.216,53.697 422.612,56.958C418.008,60.219 415.027,66.046 416.095,71.586C413.33,68.779 411.953,64.664 412.473,60.758C412.992,56.852 415.395,53.24 418.797,51.252C416.729,44.41 418.501,36.541 423.303,31.247C428.104,25.952 447.583,26.854 454.593,28.248L454.051,27.317L454.051,27.317Z" style="fill:rgb(47,46,65);fill-rule:nonzero;"/>
        <path d="M455.14,53.475C464.425,54.477 471.129,62.52 476.79,69.947C480.052,74.228 483.47,78.956 483.388,84.338C483.305,89.779 479.667,94.447 477.929,99.603C475.087,108.032 477.856,118.061 484.622,123.836C477.937,125.105 470.71,120.093 469.556,113.387C468.213,105.581 474.13,98.047 473.43,90.157C472.812,83.206 467.334,77.857 462.678,72.66C458.021,67.462 453.647,60.566 455.79,53.924L455.14,53.475L455.14,53.475Z" style="fill:rgb(47,46,65);fill-rule:nonzero;"/>
    </g>
    <g transform="matrix(1,0,0,1,166.595,378.466)">
        <path id="uuid-aec20554-f6ec-4c5b-9d97-717cd04239bf-413" d="M593.947,290.977C584.751,296.208 579.995,305.194 583.325,311.046C586.655,316.898 596.808,317.401 606.007,312.167C609.711,310.126 612.872,307.229 615.226,303.716L653.913,281.061L642.894,263.132L605.926,287.37C601.702,287.599 597.595,288.836 593.947,290.977Z" style="fill:rgb(255,182,182);fill-rule:nonzero;"/>
        <path d="M724.935,124.841C723.779,124.383 713.634,120.541 704.373,125.613C693.735,131.439 692.092,144.739 691.516,149.404C690.184,160.18 694.106,162.596 694.934,173.505C696.483,193.915 700.568,170.631 694.045,179.948C691.787,183.172 668.728,233.146 656.01,242.934C631.277,261.971 615.571,275.378 615.571,275.378L633.501,294.856C633.501,294.856 661.835,287.306 686.878,271.045C712.566,254.365 725.41,246.026 735.347,229.71C736.203,228.305 756.678,193.534 745.682,155.086C743.174,146.316 738.578,130.247 724.935,124.841L724.935,124.841Z" style="fill:rgb(252,211,10);fill-rule:nonzero;"/>
    </g>
    <g transform="matrix(1,0,0,1,166.595,378.466)">
        <path d="M817.522,221.94L815.919,296.742C815.764,303.983 809.85,309.772 802.607,309.772L665.004,309.772C657.933,309.772 652.095,304.245 651.709,297.184L647.619,222.381C647.202,214.753 653.275,208.339 660.915,208.339L804.21,208.339C811.675,208.339 817.682,214.476 817.522,221.94Z" style="fill:rgb(63,61,86);fill-rule:nonzero;"/>
    </g>
</svg>
