<?xml version="1.0" encoding="UTF-8" standalone="no"?>
<!DOCTYPE svg PUBLIC "-//W3C//DTD SVG 1.1//EN" "http://www.w3.org/Graphics/SVG/1.1/DTD/svg11.dtd">
<svg width="100%" height="100%" viewBox="0 0 1000 1000" version="1.1" xmlns="http://www.w3.org/2000/svg" xmlns:xlink="http://www.w3.org/1999/xlink" xml:space="preserve" xmlns:serif="http://www.serif.com/" style="fill-rule:evenodd;clip-rule:evenodd;stroke-linejoin:round;stroke-miterlimit:2;">
    <g id="Path_83" transform="matrix(1.18902,0,0,1.18902,-213.133,7.54524)">
        <path d="M1017.81,560.461C1012.54,605.611 1001.59,641.861 986.56,670.771C966.56,709.291 932.35,724.811 901.79,741.051C892.959,745.735 883.778,749.727 874.33,752.991C818.72,772.291 756.48,767.171 707.59,756.981C673.299,749.828 638.492,745.427 603.5,743.821C593.52,743.371 583.53,743.148 573.53,743.151C558.11,743.171 280.46,748.441 212.86,611.581C196.17,577.821 184.73,536.581 180.62,486.311C168.99,344.191 232.91,250.851 315.36,189.841C471.33,74.431 685.12,79.271 838.79,197.721C941.15,276.621 1036.99,396.031 1017.81,560.461Z" style="fill:rgb(242,242,242);fill-rule:nonzero;"/>
    </g>
    <g transform="matrix(1,0,0,1,217.595,275.03)">
        <g transform="matrix(1.20605,0,0,1.20605,-58.1897,9.64477)">
            <path d="M496.138,436.616L484.396,436.615L478.81,391.325L496.14,391.326L496.138,436.616Z" style="fill:rgb(255,182,182);fill-rule:nonzero;"/>
            <path d="M496.551,448.865L460.444,448.863L460.444,448.407C460.444,440.645 466.736,434.353 474.498,434.353L474.499,434.353L481.094,429.349L493.4,434.354L496.551,434.354L496.551,448.865Z" style="fill:rgb(47,46,65);fill-rule:nonzero;"/>
        </g>
        <g transform="matrix(1.20605,0,0,1.20605,-58.1897,9.64477)">
            <path d="M444.083,436.616L432.341,436.615L426.756,391.325L444.085,391.326L444.083,436.616Z" style="fill:rgb(255,182,182);fill-rule:nonzero;"/>
            <path d="M444.496,448.865L408.389,448.863L408.389,448.407C408.389,440.645 414.681,434.353 422.443,434.353L422.444,434.353L429.039,429.349L441.345,434.354L444.497,434.354L444.496,448.865Z" style="fill:rgb(47,46,65);fill-rule:nonzero;"/>
        </g>
        <g transform="matrix(1.20605,0,0,1.20605,-58.1897,9.64477)">
            <path d="M438.488,183.865L506.23,185.291C506.23,185.291 518.409,205.257 509.111,233.424L510.152,241.267L505.874,253.39L503.734,290.47L505.874,296.175L504.448,306.871C504.448,306.871 510.152,377.466 495.891,413.12L478.777,412.407L472.359,319.383L475.924,312.575L475.211,309.723L466.654,266.938L458.097,289.044L458.097,301.326L450.254,310.436C450.254,310.436 453.106,394.58 445.262,411.693L426.102,411.693L418.878,297.601L426.009,231.284L424.583,227.006L426.722,224.867L425.296,217.736L438.488,183.865L438.488,183.865L438.488,183.865Z" style="fill:rgb(47,46,65);fill-rule:nonzero;"/>
        </g>
        <g transform="matrix(1.20605,0,0,1.20605,-58.1897,9.64477)">
            <path d="M467.367,53.728L488.047,48.736L493.751,62.285C493.751,62.285 523.266,77.972 524.692,99.365C524.692,99.365 528.692,116.479 525.127,124.322C521.561,132.166 506.587,157.124 506.587,157.124C506.587,157.124 520.135,200.622 516.57,202.761C513.004,204.9 428.148,200.622 428.148,196.343C428.148,192.065 442.27,147.141 442.27,147.141L445.262,70.128L464.515,62.998L467.367,53.728L467.367,53.728L467.367,53.728Z" style="fill:rgb(63,61,86);fill-rule:nonzero;"/>
        </g>
        <g transform="matrix(1.20605,0,0,1.20605,-58.1897,9.64477)">
            <path d="M522.497,229.263C518.169,227.082 516.428,221.805 518.609,217.477C518.829,217.041 519.087,216.639 519.365,216.258L507.858,137.365L523.789,137.874L532.122,214.743C535.142,217.305 536.144,221.682 534.283,225.375C532.102,229.703 526.826,231.444 522.497,229.263L522.497,229.263Z" style="fill:rgb(255,182,182);fill-rule:nonzero;"/>
        </g>
        <g transform="matrix(1.20605,0,0,1.20605,-58.1897,9.64477)">
            <path d="M371.338,192.028C369.596,187.505 371.849,182.426 376.372,180.684C376.827,180.508 377.289,180.384 377.751,180.288L422.203,114.103L433.665,125.178L388.221,187.733C388.738,191.659 386.541,195.575 382.683,197.061C378.16,198.804 373.081,196.55 371.338,192.028L371.338,192.028Z" style="fill:rgb(255,182,182);fill-rule:nonzero;"/>
        </g>
        <g transform="matrix(1.20605,0,0,1.20605,-58.1897,9.64477)">
            <path d="M493.468,117.466C488.967,102.002 496.443,86.226 512.548,86.302C517.203,86.324 520.82,87.675 521.822,91.413C525.33,104.5 527.243,124.254 527.243,124.254L531.404,145.286L528.884,149.653L534.139,163.748L531.59,170.416L531.039,204.468L518.203,203.755L504.061,177.796L498.653,174.58C498.653,174.58 502.995,132.608 494.358,120.523L493.468,117.466L493.468,117.466L493.468,117.466Z" style="fill:rgb(63,61,86);fill-rule:nonzero;"/>
        </g>
        <g transform="matrix(1.20605,0,0,1.20605,-58.1897,9.64477)">
            <path d="M435.975,79.41C443.481,65.16 462.695,61.785 474.226,73.028C477.559,76.278 479.222,79.762 477.346,83.148C470.777,94.997 455.553,107.756 455.553,107.756L436.804,137.898L431.957,139.288L425.945,153.076L413.061,168.224L395.997,177.223L386.013,167.24L388.133,154.407L413.824,120.177C413.824,120.177 432.308,96.92 434.491,82.227L435.975,79.41L435.975,79.41L435.975,79.41Z" style="fill:rgb(63,61,86);fill-rule:nonzero;"/>
        </g>
        <g transform="matrix(1.20605,0,0,1.20605,-58.1897,9.64477)">
            <path d="M471.297,49.56C471.769,49.617 472.24,49.659 472.708,49.681C474.166,49.761 475.605,49.678 476.993,49.442C481.209,48.767 485.039,46.77 487.995,43.841C491.119,40.751 493.258,36.627 493.836,31.932C495.19,20.849 487.298,10.753 476.215,9.399C465.292,8.056 455.334,15.697 453.744,26.525C453.719,26.693 453.694,26.853 453.676,27.02C452.322,38.11 460.206,48.199 471.297,49.56L471.297,49.56L471.297,49.56Z" style="fill:rgb(255,182,182);fill-rule:nonzero;"/>
        </g>
        <g transform="matrix(1.20605,0,0,1.20605,-58.1897,9.64477)">
            <path d="M449.187,25.783C452.058,27.203 456.749,22.74 458.545,25.308C458.837,24.753 459.16,24.216 459.478,23.708C459.766,23.254 460.178,22.285 460.655,22.119C460.052,23.575 460.185,25.547 460.811,27.237C463.643,28.295 467.35,25.953 469.971,23.182C474.087,18.838 480.807,29.978 479.218,35.743C481.241,33.273 485.629,34.666 487.116,37.49C488.602,40.306 486.091,42.563 485.554,45.705L489.608,45.19C492.166,42.699 491.987,38.501 494.093,35.613C497.611,30.781 498.975,25.851 496.33,20.864C493.984,16.455 493.764,10.748 489.46,8.206C491.341,7.286 484.653,8.723 486.44,5.726C488.234,2.736 478.671,2.374 478.047,3.975C475.314,0.705 472.558,-1.452 469.196,1.169C465.895,3.747 466.236,6.458 462.359,6.215C460.539,6.102 460.739,9.494 459.658,10.973C458.582,12.444 454.402,13.389 454.199,13.231C453.095,12.368 449.338,19.721 449.338,19.721C449.338,19.721 446.293,24.345 449.187,25.783L449.187,25.783Z" style="fill:rgb(47,46,65);fill-rule:nonzero;"/>
        </g>
    </g>
    <g transform="matrix(1.20605,0,0,1.20605,159.405,284.674)">
        <path d="M196.155,154.13C264.086,154.13 319.155,209.199 319.155,277.13C319.155,345.061 264.086,400.13 196.155,400.13C128.224,400.13 34.21,332.779 73.155,277.13C112.1,221.482 128.224,154.13 196.155,154.13Z" style="fill:rgb(66,103,178);fill-rule:nonzero;"/>
    </g>
    <g transform="matrix(1.20605,0,0,1.20605,159.405,284.674)">
        <path d="M360.782,159.982C359.679,159.982 358.782,160.879 358.782,161.982L358.782,225.982C358.782,227.085 359.679,227.982 360.782,227.982C361.885,227.982 362.782,227.085 362.782,225.982L362.782,161.982C362.782,160.879 361.885,159.982 360.782,159.982Z" style="fill:rgb(63,61,86);fill-rule:nonzero;"/>
    </g>
    <g transform="matrix(1.20605,0,0,1.20605,159.405,284.674)">
        <path d="M24.782,111.982C23.679,111.982 22.782,112.879 22.782,113.982L22.782,129.982C22.782,131.085 23.679,131.982 24.782,131.982C25.885,131.982 26.782,131.085 26.782,129.982L26.782,113.982C26.782,112.879 25.885,111.982 24.782,111.982Z" style="fill:rgb(63,61,86);fill-rule:nonzero;"/>
    </g>
    <g transform="matrix(1.20605,0,0,1.20605,159.405,284.674)">
        <path d="M24.782,159.982C23.679,159.982 22.782,160.879 22.782,161.982L22.782,192.982C22.782,194.085 23.679,194.982 24.782,194.982C25.885,194.982 26.782,194.085 26.782,192.982L26.782,161.982C26.782,160.879 25.885,159.982 24.782,159.982Z" style="fill:rgb(63,61,86);fill-rule:nonzero;"/>
    </g>
    <g transform="matrix(1.20605,0,0,1.20605,159.405,284.674)">
        <path d="M24.782,203.982C23.679,203.982 22.782,204.879 22.782,205.982L22.782,236.982C22.782,238.085 23.679,238.982 24.782,238.982C25.885,238.982 26.782,238.085 26.782,236.982L26.782,205.982C26.782,204.879 25.885,203.982 24.782,203.982Z" style="fill:rgb(63,61,86);fill-rule:nonzero;"/>
    </g>
    <g transform="matrix(1.20605,0,0,1.20605,159.405,284.674)">
        <path d="M204.155,48.982C203.052,48.982 202.155,49.879 202.155,50.982L202.155,81.982C202.155,83.085 203.052,83.982 204.155,83.982C205.258,83.982 206.155,83.085 206.155,81.982L206.155,50.982C206.155,49.879 205.258,48.982 204.155,48.982Z" style="fill:rgb(63,61,86);fill-rule:nonzero;"/>
    </g>
    <g transform="matrix(1,0,0,1,217.595,275.03)">
        <g transform="matrix(1.20605,0,0,1.20605,-58.1897,9.64477)">
            <path d="M510.551,432.608C512.617,432.737 513.759,430.17 512.196,428.674L512.041,428.056C512.061,428.007 512.082,427.957 512.102,427.908C514.192,422.926 521.272,422.96 523.344,427.95C525.182,432.378 527.523,436.814 528.099,441.496C528.358,443.562 528.242,445.668 527.783,447.696C532.091,438.286 534.358,428.009 534.358,417.675C534.358,415.079 534.216,412.482 533.925,409.892C533.686,407.774 533.357,405.668 532.931,403.582C530.625,392.305 525.632,381.564 518.431,372.592C514.969,370.7 512.082,367.742 510.338,364.196C509.711,362.917 509.22,361.541 508.988,360.14C509.382,360.191 510.473,354.191 510.176,353.823C510.725,352.99 511.708,352.576 512.308,351.763C515.29,347.719 519.399,348.425 521.544,353.92C526.126,356.233 526.17,360.068 523.359,363.757C521.57,366.104 521.324,369.279 519.755,371.791C519.916,371.998 520.084,372.198 520.246,372.405C523.207,376.203 525.768,380.285 527.927,384.574C527.316,379.807 528.217,374.065 529.753,370.364C531.501,366.147 534.778,362.595 537.664,358.949C541.13,354.57 548.237,356.481 548.848,362.032C548.853,362.086 548.859,362.14 548.865,362.194C548.436,362.435 548.016,362.692 547.606,362.964C545.267,364.511 546.075,368.137 548.847,368.565L548.91,368.575C548.755,370.119 548.49,371.649 548.103,373.154C551.804,387.47 543.813,392.684 532.401,392.918C532.149,393.048 531.904,393.177 531.652,393.3C532.808,396.555 533.732,399.894 534.416,403.278C535.03,406.269 535.456,409.292 535.695,412.327C535.992,416.157 535.967,420.007 535.644,423.831L535.663,423.695C536.483,419.484 538.77,415.55 542.09,412.825C547.035,408.762 554.022,407.266 559.358,404C561.926,402.428 565.217,404.46 564.769,407.438L564.747,407.58C563.953,407.903 563.178,408.278 562.428,408.697C562,408.939 561.58,409.196 561.17,409.467C558.83,411.015 559.639,414.641 562.411,415.069L562.474,415.079C562.519,415.085 562.558,415.092 562.603,415.098C561.24,418.334 559.341,421.338 556.964,423.927C554.65,436.425 544.708,437.61 534.074,433.971L534.068,433.971C532.905,439.035 531.206,443.982 529.023,448.697L511.003,448.697C510.938,448.497 510.88,448.29 510.822,448.09C512.488,448.193 514.168,448.097 515.808,447.793C514.471,446.152 513.134,444.499 511.797,442.858C511.765,442.826 511.739,442.794 511.713,442.762C511.035,441.922 510.351,441.089 509.672,440.249L509.672,440.248C509.63,437.671 509.939,435.101 510.551,432.608L510.551,432.608L510.551,432.608L510.551,432.608Z" style="fill:rgb(242,242,242);fill-rule:nonzero;"/>
        </g>
        <g transform="matrix(1.20605,0,0,1.20605,-58.1897,9.64477)">
            <path d="M0,448.751C0,449.411 0.53,449.941 1.19,449.941L563.48,449.941C564.14,449.941 564.67,449.411 564.67,448.751C564.67,448.091 564.14,447.561 563.48,447.561L1.19,447.561C0.53,447.561 0,448.091 0,448.751Z" style="fill:rgb(204,204,204);fill-rule:nonzero;"/>
        </g>
    </g>
    <g transform="matrix(1.20605,0,0,1.20605,159.405,284.674)">
        <path d="M142.376,268.839L73.155,268.839L73.155,266.839L142.376,266.839C148.389,266.839 153.281,261.947 153.281,255.933L153.281,209.13L155.281,209.13L155.281,255.933C155.281,263.049 149.492,268.839 142.376,268.839L142.376,268.839Z" style="fill:rgb(252,211,10);fill-rule:nonzero;"/>
    </g>
    <g transform="matrix(1.20605,0,0,1.20605,159.405,284.674)">
        <rect x="117.019" y="370.294" width="157.436" height="2" style="fill:rgb(252,211,10);"/>
    </g>
    <g transform="matrix(1,0,0,1,217.595,275.03)">
        <g transform="matrix(1.20605,0,0,1.20605,-58.1897,9.64477)">
            <path d="M374.343,255.466L290.251,255.466C285.713,255.466 282.021,251.774 282.021,247.236L282.021,164.17C282.021,159.632 285.713,155.94 290.251,155.94L374.343,155.94C378.881,155.94 382.573,159.632 382.573,164.17L382.573,247.236C382.573,251.774 378.881,255.466 374.343,255.466Z" style="fill:rgb(64,64,64);fill-rule:nonzero;"/>
        </g>
        <g transform="matrix(1.20605,0,0,1.20605,-58.1897,9.64477)">
            <path d="M305.912,158.392C294.072,158.392 284.473,167.99 284.473,179.831L284.473,245.474C284.473,249.638 287.849,253.014 292.014,253.014L343.433,253.014C363.695,253.014 380.121,236.588 380.121,216.326L380.121,165.932C380.121,161.768 376.745,158.392 372.581,158.392L305.912,158.392L305.912,158.392L305.912,158.392Z" style="fill:white;fill-rule:nonzero;"/>
        </g>
        <g transform="matrix(1.20605,0,0,1.20605,-58.1897,9.64477)">
            <path d="M354.819,182.532L309.599,182.532C308.736,182.532 308.034,181.83 308.034,180.967C308.034,180.104 308.736,179.403 309.599,179.403L354.819,179.403C355.682,179.403 356.384,180.104 356.384,180.967C356.384,181.83 355.682,182.532 354.819,182.532Z" style="fill:rgb(64,64,64);fill-rule:nonzero;"/>
            <path d="M354.819,215.895L309.599,215.895C308.736,215.895 308.034,215.193 308.034,214.331C308.034,213.468 308.736,212.766 309.599,212.766L354.819,212.766C355.682,212.766 356.384,213.468 356.384,214.331C356.384,215.193 355.682,215.895 354.819,215.895Z" style="fill:rgb(64,64,64);fill-rule:nonzero;"/>
            <path d="M373.182,199.224L291.236,199.224C290.373,199.224 289.671,198.522 289.671,197.66C289.671,196.797 290.373,196.095 291.236,196.095L373.182,196.095C374.045,196.095 374.747,196.797 374.747,197.66C374.747,198.522 374.045,199.224 373.182,199.224Z" style="fill:rgb(64,64,64);fill-rule:nonzero;"/>
        </g>
        <g transform="matrix(1.20605,0,0,1.20605,-58.1897,9.64477)">
            <path d="M374.019,229.461L344.416,229.461C343.553,229.461 342.851,228.759 342.851,227.896C342.851,227.033 343.553,226.332 344.416,226.332L374.019,226.332C374.882,226.332 375.584,227.033 375.584,227.896C375.584,228.759 374.882,229.461 374.019,229.461Z" style="fill:rgb(64,64,64);fill-rule:nonzero;"/>
        </g>
    </g>
    <g transform="matrix(1,0,0,1,217.595,275.03)">
        <g transform="matrix(1.20605,0,0,1.20605,-58.1897,9.64477)">
            <path d="M197.711,420.97L130.937,420.97C127.333,420.97 124.402,418.039 124.402,414.435L124.402,348.475C124.402,344.872 127.333,341.94 130.937,341.94L197.711,341.94C201.315,341.94 204.246,344.872 204.246,348.475L204.246,414.435C204.246,418.039 201.315,420.97 197.711,420.97Z" style="fill:rgb(64,64,64);fill-rule:nonzero;"/>
        </g>
        <g transform="matrix(1.20605,0,0,1.20605,-58.1897,9.64477)">
            <path d="M143.372,343.887C133.97,343.887 126.349,351.509 126.349,360.911L126.349,413.036C126.349,416.343 129.029,419.023 132.336,419.023L173.167,419.023C189.256,419.023 202.299,405.98 202.299,389.891L202.299,349.875C202.299,346.568 199.619,343.887 196.312,343.887L143.372,343.887L143.372,343.887L143.372,343.887Z" style="fill:white;fill-rule:nonzero;"/>
        </g>
        <g transform="matrix(1.20605,0,0,1.20605,-58.1897,9.64477)">
            <path d="M182.208,363.055L146.3,363.055C145.615,363.055 145.057,362.498 145.057,361.813C145.057,361.128 145.615,360.571 146.3,360.571L182.208,360.571C182.893,360.571 183.45,361.128 183.45,361.813C183.45,362.498 182.893,363.055 182.208,363.055Z" style="fill:rgb(64,64,64);fill-rule:nonzero;"/>
            <path d="M182.208,389.548L146.3,389.548C145.615,389.548 145.057,388.991 145.057,388.306C145.057,387.621 145.615,387.064 146.3,387.064L182.208,387.064C182.893,387.064 183.45,387.621 183.45,388.306C183.45,388.991 182.893,389.548 182.208,389.548Z" style="fill:rgb(64,64,64);fill-rule:nonzero;"/>
            <path d="M196.79,376.311L131.718,376.311C131.033,376.311 130.476,375.753 130.476,375.068C130.476,374.383 131.033,373.826 131.718,373.826L196.79,373.826C197.475,373.826 198.032,374.383 198.032,375.068C198.032,375.753 197.475,376.311 196.79,376.311Z" style="fill:rgb(64,64,64);fill-rule:nonzero;"/>
        </g>
        <g transform="matrix(1.20605,0,0,1.20605,-58.1897,9.64477)">
            <path d="M197.454,400.32L173.947,400.32C173.262,400.32 172.704,399.763 172.704,399.078C172.704,398.393 173.262,397.836 173.947,397.836L197.454,397.836C198.139,397.836 198.696,398.393 198.696,399.078C198.696,399.763 198.139,400.32 197.454,400.32Z" style="fill:rgb(64,64,64);fill-rule:nonzero;"/>
        </g>
    </g>
    <g transform="matrix(1,0,0,1,217.595,275.03)">
        <g transform="matrix(1.20605,0,0,1.20605,-58.1897,9.64477)">
            <path d="M151.04,208.626L101.657,208.626C98.992,208.626 96.824,206.458 96.824,203.793L96.824,155.012C96.824,152.347 98.992,150.179 101.657,150.179L151.04,150.179C153.705,150.179 155.873,152.347 155.873,155.012L155.873,203.793C155.873,206.458 153.705,208.626 151.04,208.626L151.04,208.626L151.04,208.626Z" style="fill:rgb(64,64,64);fill-rule:nonzero;"/>
        </g>
        <g transform="matrix(1.20605,0,0,1.20605,-58.1897,9.64477)">
            <path d="M110.854,151.619C103.901,151.619 98.264,157.256 98.264,164.209L98.264,202.758C98.264,205.203 100.247,207.186 102.692,207.186L132.888,207.186C144.787,207.186 154.433,197.54 154.433,185.641L154.433,156.047C154.433,153.602 152.451,151.619 150.005,151.619L110.854,151.619L110.854,151.619L110.854,151.619Z" style="fill:white;fill-rule:nonzero;"/>
        </g>
        <g transform="matrix(1.20605,0,0,1.20605,-58.1897,9.64477)">
            <path d="M139.575,165.795L113.019,165.795C112.512,165.795 112.1,165.383 112.1,164.876C112.1,164.37 112.512,163.958 113.019,163.958L139.575,163.958C140.081,163.958 140.493,164.37 140.493,164.876C140.493,165.383 140.081,165.795 139.575,165.795Z" style="fill:rgb(64,64,64);fill-rule:nonzero;"/>
            <path d="M139.575,185.388L113.019,185.388C112.512,185.388 112.1,184.976 112.1,184.469C112.1,183.962 112.512,183.55 113.019,183.55L139.575,183.55C140.081,183.55 140.493,183.962 140.493,184.469C140.493,184.976 140.081,185.388 139.575,185.388Z" style="fill:rgb(64,64,64);fill-rule:nonzero;"/>
            <path d="M150.358,175.598L102.235,175.598C101.729,175.598 101.316,175.186 101.316,174.679C101.316,174.172 101.729,173.76 102.235,173.76L150.358,173.76C150.865,173.76 151.277,174.172 151.277,174.679C151.277,175.186 150.865,175.598 150.358,175.598Z" style="fill:rgb(64,64,64);fill-rule:nonzero;"/>
        </g>
        <g transform="matrix(1.20605,0,0,1.20605,-58.1897,9.64477)">
            <path d="M150.85,193.354L133.465,193.354C132.959,193.354 132.546,192.942 132.546,192.435C132.546,191.929 132.959,191.517 133.465,191.517L150.85,191.517C151.356,191.517 151.769,191.929 151.769,192.435C151.769,192.942 151.356,193.354 150.85,193.354Z" style="fill:rgb(64,64,64);fill-rule:nonzero;"/>
        </g>
    </g>
    <g transform="matrix(1.20605,0,0,1.20605,159.405,284.674)">
        <circle cx="295.155" cy="260.13" r="10" style="fill:rgb(252,211,10);"/>
    </g>
    <g transform="matrix(1.20605,0,0,1.20605,159.405,284.674)">
        <circle cx="154.155" cy="209.13" r="10" style="fill:rgb(252,211,10);"/>
    </g>
    <g transform="matrix(1.20605,0,0,1.20605,159.405,284.674)">
        <circle cx="202.155" cy="346.13" r="10" style="fill:rgb(252,211,10);"/>
    </g>
    <g transform="matrix(1,0,0,1,217.595,275.03)">
        <g transform="matrix(1.20605,0,0,1.20605,-58.1897,9.64477)">
            <ellipse cx="223.756" cy="66.652" rx="12.463" ry="12.201" style="fill:rgb(242,242,242);"/>
        </g>
        <g transform="matrix(1.20605,0,0,1.20605,-58.1897,9.64477)">
            <path d="M323.669,62.478L256.584,62.478C254.283,62.478 252.41,60.606 252.41,58.304C252.41,56.003 254.283,54.13 256.584,54.13L323.669,54.13C325.971,54.13 327.843,56.003 327.843,58.304C327.843,60.606 325.971,62.478 323.669,62.478Z" style="fill:rgb(242,242,242);fill-rule:nonzero;"/>
        </g>
        <g transform="matrix(1.20605,0,0,1.20605,-58.1897,9.64477)">
            <path d="M376.023,76.605L256.584,76.605C254.283,76.605 252.41,74.733 252.41,72.431C252.41,70.13 254.283,68.257 256.584,68.257L376.023,68.257C378.324,68.257 380.196,70.13 380.196,72.431C380.196,74.733 378.324,76.605 376.023,76.605Z" style="fill:rgb(242,242,242);fill-rule:nonzero;"/>
        </g>
    </g>
    <g transform="matrix(1,0,0,1,217.595,275.03)">
        <g transform="matrix(1.20605,0,0,1.20605,-58.1897,9.64477)">
            <ellipse cx="43.359" cy="122.234" rx="8.066" ry="7.896" style="fill:rgb(242,242,242);"/>
        </g>
        <g transform="matrix(1.20605,0,0,1.20605,-58.1897,9.64477)">
            <path d="M108.021,119.533L64.605,119.533C63.115,119.533 61.904,118.321 61.904,116.832C61.904,115.342 63.115,114.13 64.605,114.13L108.021,114.13C109.511,114.13 110.723,115.342 110.723,116.832C110.723,118.321 109.511,119.533 108.021,119.533Z" style="fill:rgb(242,242,242);fill-rule:nonzero;"/>
        </g>
        <g transform="matrix(1.20605,0,0,1.20605,-58.1897,9.64477)">
            <path d="M141.904,128.676L64.605,128.676C63.115,128.676 61.904,127.464 61.904,125.975C61.904,124.485 63.115,123.273 64.605,123.273L141.904,123.273C143.393,123.273 144.605,124.485 144.605,125.975C144.605,127.464 143.393,128.676 141.904,128.676Z" style="fill:rgb(242,242,242);fill-rule:nonzero;"/>
        </g>
    </g>
    <g transform="matrix(1,0,0,1,217.595,275.03)">
        <g transform="matrix(1.20605,0,0,1.20605,-58.1897,9.64477)">
            <ellipse cx="285.359" cy="403.234" rx="8.066" ry="7.896" style="fill:rgb(242,242,242);"/>
        </g>
        <g transform="matrix(1.20605,0,0,1.20605,-58.1897,9.64477)">
            <path d="M350.021,400.533L306.605,400.533C305.115,400.533 303.904,399.321 303.904,397.832C303.904,396.342 305.115,395.13 306.605,395.13L350.021,395.13C351.511,395.13 352.723,396.342 352.723,397.832C352.723,399.321 351.511,400.533 350.021,400.533Z" style="fill:rgb(242,242,242);fill-rule:nonzero;"/>
        </g>
        <g transform="matrix(1.20605,0,0,1.20605,-58.1897,9.64477)">
            <path d="M383.904,409.676L306.605,409.676C305.115,409.676 303.904,408.464 303.904,406.975C303.904,405.485 305.115,404.273 306.605,404.273L383.904,404.273C385.393,404.273 386.605,405.485 386.605,406.975C386.605,408.464 385.393,409.676 383.904,409.676Z" style="fill:rgb(242,242,242);fill-rule:nonzero;"/>
        </g>
    </g>
    <g transform="matrix(1.20605,0,0,1.20605,159.405,284.674)">
        <rect x="186.405" y="155.97" width="2" height="95" style="fill:rgb(165,165,165);"/>
    </g>
    <g transform="matrix(1.20605,0,0,1.20605,159.405,284.674)">
        <circle cx="187.405" cy="250.97" r="6" style="fill:rgb(165,165,165);"/>
    </g>
    <g transform="matrix(1.20605,0,0,1.20605,159.405,284.674)">
        <circle cx="278.405" cy="319.97" r="6" style="fill:rgb(165,165,165);"/>
    </g>
    <g transform="matrix(1.20605,0,0,1.20605,159.405,284.674)">
        <circle cx="116.405" cy="237.97" r="6" style="fill:rgb(165,165,165);"/>
    </g>
    <g transform="matrix(1.2055,-0.0364946,0.0364946,1.2055,150.72,288.376)">
        <rect x="81.398" y="238.476" width="32.828" height="2.001" style="fill:rgb(165,165,165);"/>
    </g>
    <g transform="matrix(1.20605,0,0,1.20605,159.405,284.674)">
        <path d="M327.216,342.94L277.46,342.94L277.46,319.97L279.46,319.97L279.46,340.94L327.216,340.94L327.216,342.94Z" style="fill:rgb(165,165,165);fill-rule:nonzero;"/>
    </g>
    <g transform="matrix(1.20605,0,0,1.20605,159.405,284.674)">
        <circle cx="113.942" cy="303.486" r="6" style="fill:rgb(165,165,165);"/>
    </g>
    <g transform="matrix(1.20605,0,0,1.20605,159.405,284.674)">
        <path d="M162.161,326.455L112.405,326.455L112.405,303.486L114.405,303.486L114.405,324.455L162.161,324.455L162.161,326.455Z" style="fill:rgb(165,165,165);fill-rule:nonzero;"/>
    </g>
    <g transform="matrix(1.20605,0,0,1.20605,159.405,284.674)">
        <rect x="75.423" y="280.655" width="238.982" height="2" style="fill:rgb(230,230,230);"/>
    </g>
</svg>
