<?xml version="1.0" encoding="UTF-8" standalone="no"?>
<!DOCTYPE svg PUBLIC "-//W3C//DTD SVG 1.1//EN" "http://www.w3.org/Graphics/SVG/1.1/DTD/svg11.dtd">
<svg width="100%" height="100%" viewBox="0 0 1000 1000" version="1.1" xmlns="http://www.w3.org/2000/svg" xmlns:xlink="http://www.w3.org/1999/xlink" xml:space="preserve" xmlns:serif="http://www.serif.com/" style="fill-rule:evenodd;clip-rule:evenodd;stroke-linejoin:round;stroke-miterlimit:2;">
    <g id="Path_83" transform="matrix(1.18902,0,0,1.18902,-213.133,7.54524)">
        <path d="M1017.81,560.461C1012.54,605.611 1001.59,641.861 986.56,670.771C966.56,709.291 932.35,724.811 901.79,741.051C892.959,745.735 883.778,749.727 874.33,752.991C818.72,772.291 756.48,767.171 707.59,756.981C673.299,749.828 638.492,745.427 603.5,743.821C593.52,743.371 583.53,743.148 573.53,743.151C558.11,743.171 280.46,748.441 212.86,611.581C196.17,577.821 184.73,536.581 180.62,486.311C168.99,344.191 232.91,250.851 315.36,189.841C471.33,74.431 685.12,79.271 838.79,197.721C941.15,276.621 1036.99,396.031 1017.81,560.461Z" style="fill:rgb(242,242,242);fill-rule:nonzero;"/>
    </g>
    <g transform="matrix(1,0,0,1,36.6892,199.958)">
        <circle cx="150.534" cy="254.872" r="24.561" style="fill:rgb(255,184,184);"/>
    </g>
    <g transform="matrix(1,0,0,1,36.6892,199.958)">
        <path d="M67.543,549.197L73.762,559.763L117.474,540.803L108.295,525.21L67.543,549.197Z" style="fill:rgb(255,184,184);fill-rule:nonzero;"/>
    </g>
    <g transform="matrix(1,0,0,1,-100,50)">
        <path d="M206.096,694.43L218.343,715.237L218.343,715.237C219.736,717.603 220.47,720.298 220.47,723.042C220.47,728.486 217.58,733.54 212.888,736.302L212.457,736.556L192.405,702.489L206.096,694.43Z" style="fill:rgb(47,46,65);fill-rule:nonzero;"/>
    </g>
    <g transform="matrix(1,0,0,1,36.6892,199.958)">
        <path d="M139.6,587.26L151.86,587.259L157.692,539.971L139.598,539.972L139.6,587.26Z" style="fill:rgb(255,184,184);fill-rule:nonzero;"/>
    </g>
    <g transform="matrix(1,0,0,1,-100,50)">
        <path d="M273.162,733.215L297.307,733.214C305.748,733.214 312.694,740.159 312.694,748.6L312.694,749.1L273.163,749.101L273.162,733.215Z" style="fill:rgb(47,46,65);fill-rule:nonzero;"/>
    </g>
    <g transform="matrix(1,0,0,1,-100,50)">
        <path d="M227.001,708.567C225.571,708.568 224.223,707.887 223.377,706.734L211.553,690.676C210.984,689.903 210.677,688.967 210.677,688.008C210.677,686.506 211.428,685.099 212.677,684.265L265.291,649.124L233.545,565.649L301.434,571.252L303.721,642.985C304.157,656.278 297.203,668.774 285.675,675.409L229.249,707.963C228.566,708.359 227.79,708.567 227.001,708.567Z" style="fill:rgb(47,46,65);fill-rule:nonzero;"/>
    </g>
    <g transform="matrix(1,0,0,1,-100,50)">
        <path d="M276.659,727.617C274.254,727.613 272.256,725.681 272.171,723.277L269.683,653.395L300.491,651.772L298.038,722.156C297.963,724.455 296.133,726.343 293.838,726.489L276.965,727.607C276.863,727.614 276.761,727.617 276.659,727.617Z" style="fill:rgb(47,46,65);fill-rule:nonzero;"/>
    </g>
    <g transform="matrix(1,0,0,1,-100,50)">
        <path d="M309.291,585.129C301.453,585.129 274.074,576.312 264.57,573.17C263.148,574.307 255.337,580.148 246.219,579.081C240.593,578.421 235.64,575.236 231.498,569.615C222.351,557.201 233.648,503.964 244.737,461.489C249.329,443.754 267.372,432.677 285.265,436.609C298.05,439.432 308.179,449.285 311.353,461.987C313.441,470.485 311.645,480.481 310.333,487.781C309.717,491.213 309.23,493.924 309.396,495.256C310.04,500.404 313.615,581.147 311.316,584.596C311.071,584.963 310.363,585.129 309.291,585.129Z" style="fill:rgb(252,211,10);fill-rule:nonzero;"/>
    </g>
    <g transform="matrix(1,0,0,1,-100,50)">
        <path d="M280.616,585.272C283.337,583.246 284.944,580.047 284.944,576.655C284.944,573.691 283.717,570.856 281.558,568.826L282.043,470.983L258.998,474.82L265.767,569.79C264.179,571.723 263.31,574.148 263.31,576.65C263.31,582.575 268.185,587.451 274.11,587.451C276.458,587.451 278.742,586.686 280.616,585.272Z" style="fill:rgb(255,184,184);fill-rule:nonzero;"/>
    </g>
    <g transform="matrix(1,0,0,1,-100,50)">
        <path d="M285.946,533.818L261.124,533.818C258.674,533.811 256.654,531.81 256.624,529.359L256.015,462.067C256.014,462.014 256.014,461.961 256.014,461.908C256.014,452.251 263.96,444.305 273.617,444.305C283.274,444.305 291.22,452.251 291.22,461.908C291.22,461.975 291.22,462.043 291.219,462.11L290.446,529.37C290.409,531.816 288.392,533.81 285.946,533.818Z" style="fill:rgb(252,211,10);fill-rule:nonzero;"/>
    </g>
    <g transform="matrix(1,0,0,1,-100,50)">
        <path d="M280.969,429.289C269.724,429.309 259.115,420.421 257.166,409.346C256.469,404.995 256.783,400.541 258.086,396.332C262.458,381.514 276.161,371.27 291.611,371.27C296.58,371.27 301.493,372.33 306.021,374.379C309.029,375.74 311.992,377.695 313.37,380.696C314.747,383.697 313.885,387.892 310.872,389.242C308.903,390.124 306.432,389.691 304.685,390.958C302.176,392.777 302.821,396.649 303.942,399.539C305.062,402.429 306.33,405.926 304.451,408.391C302.701,410.689 299.203,410.617 296.447,409.753C293.691,408.888 290.971,407.44 288.098,407.734C283.908,408.164 280.897,412.332 280.339,416.507C279.782,420.683 281.094,424.856 282.389,428.865L280.969,429.289Z" style="fill:rgb(47,46,65);fill-rule:nonzero;"/>
    </g>
    <g transform="matrix(1,0,0,1,-100,50)">
        <path d="M395.689,750.042L137.689,750.042C137.141,750.042 136.689,749.591 136.689,749.042C136.689,748.494 137.141,748.042 137.689,748.042L395.689,748.042C396.238,748.042 396.689,748.494 396.689,749.042C396.689,749.591 396.238,750.042 395.689,750.042Z" style="fill:rgb(204,204,204);fill-rule:nonzero;"/>
    </g>
    <g transform="matrix(1,0,0,1,-100,50)">
        <path d="M1046.81,584.505L405.972,584.505C396.925,584.495 389.483,577.053 389.472,568.005L389.472,172.852C389.48,166.223 394.932,160.771 401.56,160.763L1051.01,160.763C1057.76,160.771 1063.3,166.317 1063.31,173.061L1063.31,568.005C1063.3,577.053 1055.86,584.495 1046.81,584.505Z" style="fill:rgb(204,204,204);fill-rule:nonzero;"/>
    </g>
    <g transform="matrix(1,0,0,1,-100,50)">
        <path d="M1026.09,563.673L428.846,563.673C420.091,563.673 412.969,557.003 412.969,548.805L412.969,204.7C412.969,198.62 418.247,193.673 424.734,193.673L1030.01,193.673C1036.6,193.673 1041.97,198.701 1041.97,204.882L1041.97,548.805C1041.97,557.003 1034.85,563.673 1026.09,563.673Z" style="fill:white;fill-rule:nonzero;"/>
    </g>
    <g transform="matrix(1,0,0,1,-100,50)">
        <path d="M1063.08,174.908L389.241,174.908L389.241,166.507C389.254,157.429 396.723,149.965 405.801,149.958L1046.52,149.958C1055.6,149.965 1063.07,157.429 1063.08,166.507L1063.08,174.908Z" style="fill:rgb(63,61,86);fill-rule:nonzero;"/>
    </g>
    <g transform="matrix(1,0,0,1,36.6892,199.958)">
        <circle cx="282.647" cy="12.5" r="4.283" style="fill:white;"/>
    </g>
    <g transform="matrix(1,0,0,1,36.6892,199.958)">
        <circle cx="298.906" cy="12.5" r="4.283" style="fill:white;"/>
    </g>
    <g transform="matrix(1,0,0,1,36.6892,199.958)">
        <circle cx="315.165" cy="12.5" r="4.283" style="fill:white;"/>
    </g>
    <g transform="matrix(1,0,0,1,-100,50)">
        <path d="M713.3,268.912L596.492,268.912C592.889,268.912 589.925,265.948 589.925,262.346C589.925,258.744 592.889,255.78 596.492,255.78L713.3,255.78C716.902,255.78 719.866,258.744 719.866,262.346C719.866,265.948 716.902,268.912 713.3,268.912Z" style="fill:rgb(204,204,204);fill-rule:nonzero;"/>
    </g>
    <g transform="matrix(1,0,0,1,-100,50)">
        <path d="M858.446,268.912L741.638,268.912C738.036,268.912 735.072,265.948 735.072,262.346C735.072,258.744 738.036,255.78 741.638,255.78L858.446,255.78C862.048,255.78 865.012,258.744 865.012,262.346C865.012,265.948 862.048,268.912 858.446,268.912Z" style="fill:rgb(204,204,204);fill-rule:nonzero;"/>
    </g>
    <g transform="matrix(1,0,0,1,-100,50)">
        <path d="M858.446,293.794L655.241,293.794C651.639,293.794 648.675,290.83 648.675,287.228C648.675,283.626 651.639,280.662 655.241,280.662L858.446,280.662C862.048,280.662 865.012,283.626 865.012,287.228C865.012,290.83 862.048,293.794 858.446,293.794Z" style="fill:rgb(204,204,204);fill-rule:nonzero;"/>
    </g>
    <g transform="matrix(1,0,0,1,-100,50)">
        <path d="M713.3,243.684L596.492,243.684C592.893,243.68 589.933,240.717 589.933,237.118C589.933,233.519 592.893,230.556 596.492,230.552L713.3,230.552C713.302,230.552 713.305,230.552 713.308,230.552C716.91,230.552 719.874,233.516 719.874,237.118C719.874,240.72 716.91,243.684 713.308,243.684C713.305,243.684 713.302,243.684 713.3,243.684Z" style="fill:rgb(204,204,204);fill-rule:nonzero;"/>
    </g>
    <g transform="matrix(1,0,0,1,-100,50)">
        <path d="M777.579,244.03L744.402,244.03C740.8,244.03 737.836,241.066 737.836,237.464C737.836,233.862 740.8,230.897 744.402,230.897L777.579,230.897C781.181,230.897 784.145,233.862 784.145,237.464C784.145,241.066 781.181,244.03 777.579,244.03Z" style="fill:rgb(204,204,204);fill-rule:nonzero;"/>
    </g>
    <g transform="matrix(1,0,0,1,-100,50)">
        <path d="M629.668,293.794L596.492,293.794C592.893,293.79 589.933,290.827 589.933,287.228C589.933,283.629 592.893,280.666 596.492,280.662L629.668,280.662C629.671,280.662 629.673,280.662 629.676,280.662C633.278,280.662 636.242,283.626 636.242,287.228C636.242,290.83 633.278,293.794 629.676,293.794C629.673,293.794 629.671,293.794 629.668,293.794Z" style="fill:rgb(204,204,204);fill-rule:nonzero;"/>
    </g>
    <g transform="matrix(1,0,0,1,-100,50)">
        <path d="M713.3,501.912L596.492,501.912C592.889,501.912 589.925,498.948 589.925,495.346C589.925,491.744 592.889,488.78 596.492,488.78L713.3,488.78C716.902,488.78 719.866,491.744 719.866,495.346C719.866,498.948 716.902,501.912 713.3,501.912Z" style="fill:rgb(204,204,204);fill-rule:nonzero;"/>
    </g>
    <g transform="matrix(1,0,0,1,-100,50)">
        <path d="M858.446,501.912L741.638,501.912C738.036,501.912 735.072,498.948 735.072,495.346C735.072,491.744 738.036,488.78 741.638,488.78L858.446,488.78C862.048,488.78 865.012,491.744 865.012,495.346C865.012,498.948 862.048,501.912 858.446,501.912Z" style="fill:rgb(204,204,204);fill-rule:nonzero;"/>
    </g>
    <g transform="matrix(1,0,0,1,-100,50)">
        <path d="M858.446,526.794L655.241,526.794C651.639,526.794 648.675,523.83 648.675,520.228C648.675,516.626 651.639,513.662 655.241,513.662L858.446,513.662C858.449,513.662 858.451,513.662 858.454,513.662C862.056,513.662 865.02,516.626 865.02,520.228C865.02,523.83 862.056,526.794 858.454,526.794C858.451,526.794 858.449,526.794 858.446,526.794Z" style="fill:rgb(204,204,204);fill-rule:nonzero;"/>
    </g>
    <g transform="matrix(1,0,0,1,-100,50)">
        <path d="M713.3,476.684L596.492,476.684C592.889,476.684 589.925,473.72 589.925,470.118C589.925,466.516 592.889,463.552 596.492,463.552L713.3,463.552C716.902,463.552 719.866,466.516 719.866,470.118C719.866,473.72 716.902,476.684 713.3,476.684Z" style="fill:rgb(204,204,204);fill-rule:nonzero;"/>
    </g>
    <g transform="matrix(1,0,0,1,-100,50)">
        <path d="M777.579,477.03L744.402,477.03C740.8,477.03 737.836,474.066 737.836,470.464C737.836,466.862 740.8,463.898 744.402,463.898L777.579,463.898C781.181,463.898 784.145,466.862 784.145,470.464C784.145,474.066 781.181,477.03 777.579,477.03Z" style="fill:rgb(204,204,204);fill-rule:nonzero;"/>
    </g>
    <g transform="matrix(1,0,0,1,-100,50)">
        <path d="M629.668,526.794L596.492,526.794C592.889,526.794 589.925,523.83 589.925,520.228C589.925,516.626 592.889,513.662 596.492,513.662L629.668,513.662C629.671,513.662 629.673,513.662 629.676,513.662C633.278,513.662 636.242,516.626 636.242,520.228C636.242,523.83 633.278,526.794 629.676,526.794C629.673,526.794 629.671,526.794 629.668,526.794Z" style="fill:rgb(204,204,204);fill-rule:nonzero;"/>
    </g>
    <g transform="matrix(1,0,0,1,-100,50)">
        <path d="M682.793,431.419C680.315,431.425 677.933,430.45 676.169,428.709L632.261,385.35C630.52,383.631 629.54,381.284 629.54,378.838C629.54,376.392 630.52,374.045 632.261,372.326L675.992,329.142C679.759,325.44 685.892,325.46 689.636,329.185C693.384,332.942 693.384,339.115 689.636,342.872L657.14,375.368C655.046,377.467 655.046,380.916 657.14,383.015L689.459,415.335C691.229,417.101 692.225,419.501 692.225,422.001C692.225,427.168 687.973,431.419 682.807,431.419C682.802,431.419 682.798,431.419 682.793,431.419L682.793,431.419Z" style="fill:rgb(252,211,10);fill-rule:nonzero;"/>
    </g>
    <g transform="matrix(1,0,0,1,-100,50)">
        <path d="M752.759,431.419C752.754,431.419 752.75,431.419 752.745,431.419C747.578,431.419 743.327,427.168 743.327,422.001C743.327,419.501 744.323,417.101 746.092,415.335L778.412,383.015C780.506,380.916 780.506,377.467 778.412,375.368L745.916,342.872C744.102,341.058 743.081,338.594 743.081,336.029C743.081,333.463 744.102,330.999 745.916,329.185C749.66,325.46 755.793,325.44 759.56,329.142L803.291,372.326C805.031,374.045 806.012,376.392 806.012,378.838C806.012,381.284 805.031,383.631 803.291,385.35L759.382,428.709C757.619,430.45 755.236,431.425 752.759,431.419Z" style="fill:rgb(252,211,10);fill-rule:nonzero;"/>
    </g>
</svg>
