<?xml version="1.0" encoding="UTF-8" standalone="no"?>
<!DOCTYPE svg PUBLIC "-//W3C//DTD SVG 1.1//EN" "http://www.w3.org/Graphics/SVG/1.1/DTD/svg11.dtd">
<svg width="100%" height="100%" viewBox="0 0 1077 243" version="1.1" xmlns="http://www.w3.org/2000/svg" xmlns:xlink="http://www.w3.org/1999/xlink" xml:space="preserve" xmlns:serif="http://www.serif.com/" style="fill-rule:evenodd;clip-rule:evenodd;stroke-linejoin:round;stroke-miterlimit:2;">
    <g transform="matrix(1,0,0,1,-85.5345,-226.261)">
        <g transform="matrix(1,0,0,1,380.668,336.759)">
            <path d="M0,47.128L22.342,47.128C23.913,59.695 28.975,70.168 50.095,70.168C63.884,70.168 73.658,62.488 73.658,50.968C73.658,39.448 67.898,35.084 47.651,31.768C17.804,27.753 3.666,18.677 3.666,-4.712C3.666,-25.134 21.12,-40.494 47.127,-40.494C74.008,-40.494 90.065,-28.275 92.509,-4.363L71.215,-4.363C68.945,-17.454 61.44,-23.039 47.127,-23.039C32.989,-23.039 25.658,-16.232 25.658,-6.632C25.658,3.491 29.848,8.554 51.491,11.695C80.814,15.71 96,24.088 96,49.048C96,70.691 77.673,87.622 50.095,87.622C16.059,87.622 1.745,70.691 0,47.128" style="fill:rgb(253,210,10);fill-rule:nonzero;"/>
        </g>
        <g transform="matrix(1,0,0,1,558.003,386.33)">
            <path d="M0,-18.85C-1.048,-34.559 -9.077,-41.541 -22.168,-41.541C-34.909,-41.541 -43.462,-32.989 -45.557,-18.85L0,-18.85ZM-67.55,-8.377L-67.55,-9.774C-67.55,-38.05 -48.175,-56.901 -22.168,-56.901C0.523,-56.901 20.945,-43.461 20.945,-10.821L20.945,-4.712L-45.906,-4.712C-45.208,12.568 -36.48,22.342 -20.771,22.342C-8.029,22.342 -1.396,17.281 0.174,8.379L20.596,8.379C17.629,27.579 2.094,38.051 -21.295,38.051C-48.175,38.051 -67.55,20.422 -67.55,-8.377" style="fill:rgb(253,210,10);fill-rule:nonzero;"/>
        </g>
        <g transform="matrix(1,0,0,1,599.015,421.065)">
            <path d="M0,-89.716L14.487,-89.716L14.487,-73.309C20.248,-83.607 28.103,-90.763 44.51,-91.287L44.51,-77.672C26.183,-76.8 14.487,-71.039 14.487,-48.524L14.487,1.571L0,1.571L0,-89.716Z" style="fill:white;fill-rule:nonzero;"/>
        </g>
        <g transform="matrix(1,0,0,1,723.289,385.807)">
            <path d="M0,-17.629C-1.396,-36.48 -11.171,-43.985 -26.182,-43.985C-41.018,-43.985 -50.967,-33.861 -53.411,-17.629L0,-17.629ZM-68.945,-7.855L-68.945,-9.251C-68.945,-36.829 -51.316,-56.029 -26.182,-56.029C-5.062,-56.029 14.837,-43.287 14.837,-10.648L14.837,-5.935L-53.935,-5.935C-53.236,14.836 -43.287,26.356 -24.61,26.356C-10.473,26.356 -2.269,21.12 -0.349,10.473L14.139,10.473C10.996,28.8 -4.189,38.4 -24.785,38.4C-50.618,38.4 -68.945,20.247 -68.945,-7.855" style="fill:white;fill-rule:nonzero;"/>
        </g>
        <g transform="matrix(1,0,0,1,759.417,421.065)">
            <path d="M0,-89.716L14.487,-89.716L14.487,-75.229C18.676,-83.781 28.8,-91.287 43.811,-91.287C62.661,-91.287 75.927,-80.988 75.927,-54.458L75.927,1.571L61.439,1.571L61.439,-55.505C61.439,-71.564 54.633,-78.72 39.971,-78.72C26.53,-78.72 14.487,-70.167 14.487,-53.76L14.487,1.571L0,1.571L0,-89.716Z" style="fill:white;fill-rule:nonzero;"/>
        </g>
        <g transform="matrix(1,0,0,1,0,-4.241)">
            <path d="M858.267,335.59L872.754,335.59L872.754,426.877L858.267,426.877L858.267,335.59ZM855.649,306.964C855.649,301.727 860.013,297.364 865.25,297.364C870.486,297.364 874.849,301.727 874.849,306.964C874.849,312.201 870.486,316.564 865.25,316.564C860.013,316.564 855.649,312.201 855.649,306.964" style="fill:white;fill-rule:nonzero;"/>
        </g>
        <g transform="matrix(1,0,0,1,904.694,334.666)">
            <path d="M0,65.105L0,8.901L-13.091,8.901L-13.091,-3.317L0,-3.317L0,-24.087L14.487,-24.087L14.487,-3.317L35.781,-3.317L35.781,8.901L14.487,8.901L14.487,63.709C14.487,72.61 18.502,76.974 25.833,76.974C30.371,76.974 33.861,76.276 37.004,75.054L37.004,87.272C34.036,88.319 30.545,89.192 24.61,89.192C8.029,89.192 0,79.418 0,65.105" style="fill:white;fill-rule:nonzero;"/>
        </g>
        <g transform="matrix(1,0,0,1,988.124,372.542)">
            <path d="M0,40.668L-35.782,-41.193L-20.247,-41.193L7.68,24.261L32.989,-41.193L47.825,-41.193L-2.618,81.861L-17.28,81.861L0,40.668Z" style="fill:white;fill-rule:nonzero;"/>
        </g>
        <g transform="matrix(1,0,0,1,1081.79,395.947)">
            <path d="M0,-69.537L7.752,-69.537L-14.976,0L-22.651,0L0,-69.537Z" style="fill:rgb(253,210,10);fill-rule:nonzero;"/>
        </g>
        <g transform="matrix(1,0,0,1,1087.89,332.581)">
            <path d="M0,51.326L0,43.5C1.882,44.252 3.763,44.853 6.924,44.853C11.815,44.853 14.977,42.295 14.977,35.672L14.977,-1.58L25.061,-1.58L25.061,35.898C25.061,47.562 18.363,52.906 8.429,52.906C3.989,52.906 1.731,52.228 0,51.326" style="fill:rgb(253,210,10);fill-rule:nonzero;"/>
        </g>
        <g transform="matrix(1,0,0,1,1121,347.786)">
            <path d="M0,20.316L9.633,20.316C10.311,25.736 12.493,30.25 21.599,30.25C27.544,30.25 31.759,26.939 31.759,21.972C31.759,17.005 29.275,15.125 20.545,13.695C7.677,11.962 1.581,8.05 1.581,-2.034C1.581,-10.84 9.106,-17.461 20.319,-17.461C31.909,-17.461 38.833,-12.194 39.886,-1.883L30.705,-1.883C29.727,-7.528 26.49,-9.936 20.319,-9.936C14.224,-9.936 11.063,-7.002 11.063,-2.862C11.063,1.504 12.869,3.685 22.201,5.039C34.844,6.771 41.392,10.382 41.392,21.144C41.392,30.476 33.489,37.777 21.599,37.777C6.924,37.777 0.753,30.476 0,20.316" style="fill:rgb(253,210,10);fill-rule:nonzero;"/>
        </g>
        <g transform="matrix(0,-1,-1,0,206.766,316.089)">
            <path d="M-31.404,-31.404C-48.749,-31.404 -62.808,-17.344 -62.808,-0C-62.808,17.344 -48.749,31.404 -31.404,31.404C-14.06,31.404 -0,17.344 -0,-0C-0,-17.344 -14.06,-31.404 -31.404,-31.404" style="fill:rgb(253,210,10);fill-rule:nonzero;"/>
        </g>
        <g transform="matrix(1,0,0,1,316.068,399.999)">
            <path d="M0,-105.012L-67.217,-37.795L-20.276,-37.795C-27.321,4.986 -64.557,37.726 -109.302,37.726C-140.698,37.726 -168.388,21.599 -184.557,-2.797L-206.843,19.49C-184.762,49.356 -149.296,68.726 -109.302,68.726C-42.347,68.726 11.93,14.449 11.93,-52.506C11.93,-71.316 7.646,-89.125 0,-105.012M-198.328,-67.216C-191.283,-109.998 -154.047,-142.738 -109.302,-142.738C-77.906,-142.738 -50.216,-126.611 -34.047,-102.215L-11.761,-124.501C-33.842,-154.368 -69.308,-173.738 -109.302,-173.738C-176.257,-173.738 -230.534,-119.46 -230.534,-52.506C-230.534,-33.695 -226.25,-15.886 -218.604,0L-151.387,-67.216L-198.328,-67.216Z" style="fill:white;fill-rule:nonzero;"/>
        </g>
    </g>
</svg>
