<?xml version="1.0" encoding="UTF-8" standalone="no"?>
<!DOCTYPE svg PUBLIC "-//W3C//DTD SVG 1.1//EN" "http://www.w3.org/Graphics/SVG/1.1/DTD/svg11.dtd">
<svg width="100%" height="100%" viewBox="0 0 1000 1000" version="1.1" xmlns="http://www.w3.org/2000/svg" xmlns:xlink="http://www.w3.org/1999/xlink" xml:space="preserve" xmlns:serif="http://www.serif.com/" style="fill-rule:evenodd;clip-rule:evenodd;stroke-linejoin:round;stroke-miterlimit:2;">
    <g id="Path_83" transform="matrix(1.18902,0,0,1.18902,-213.133,7.54524)">
        <path d="M1017.81,560.461C1012.54,605.611 1001.59,641.861 986.56,670.771C966.56,709.291 932.35,724.811 901.79,741.051C892.959,745.735 883.778,749.727 874.33,752.991C818.72,772.291 756.48,767.171 707.59,756.981C673.299,749.828 638.492,745.427 603.5,743.821C593.52,743.371 583.53,743.148 573.53,743.151C558.11,743.171 280.46,748.441 212.86,611.581C196.17,577.821 184.73,536.581 180.62,486.311C168.99,344.191 232.91,250.851 315.36,189.841C471.33,74.431 685.12,79.271 838.79,197.721C941.15,276.621 1036.99,396.031 1017.81,560.461Z" style="fill:rgb(242,242,242);fill-rule:nonzero;"/>
    </g>
    <g transform="matrix(1,0,0,1,-100,50)">
        <path d="M850.421,442.927L883.052,407.431L856.346,386.358L843.154,415.526L783.298,435.299C781.48,434.254 779.419,433.704 777.321,433.704C770.743,433.704 765.33,439.117 765.33,445.695C765.33,452.273 770.743,457.686 777.321,457.686C781.237,457.686 784.914,455.768 787.154,452.557L850.421,442.927Z" style="fill:rgb(255,182,182);fill-rule:nonzero;"/>
    </g>
    <g transform="matrix(1,0,0,1,-100,50)">
        <path d="M910.238,362.726C916.153,375.916 880.065,413.596 880.065,413.596C870.196,421.577 868.631,441.555 856.398,443.78C823.398,449.78 843.922,443.501 835.398,446.78C827.376,449.865 834.764,423.458 829.398,421.78C826.329,420.82 843.398,409.78 843.398,409.78C843.398,409.78 858.78,379.612 868.239,363.964C873.501,354.881 883.078,349.112 893.568,348.706C904.057,348.299 904.323,349.537 910.238,362.726Z" style="fill:rgb(66,103,178);fill-rule:nonzero;"/>
    </g>
    <g transform="matrix(1,0,0,1,-100,50)">
        <path d="M757.457,754.815L382.499,754.815C364.118,754.794 348.999,739.675 348.978,721.294L348.978,177.521C348.999,159.14 364.118,144.021 382.499,144L757.457,144C775.838,144.021 790.957,159.14 790.978,177.521L790.978,721.294C790.957,739.675 775.838,754.794 757.457,754.815Z" style="fill:rgb(63,61,86);fill-rule:nonzero;"/>
    </g>
    <g transform="matrix(1,0,0,1,-100,50)">
        <path d="M758.117,733.428L381.839,733.428C376.173,733.421 371.512,728.761 371.506,723.095L371.506,175.72C371.512,170.054 376.173,165.394 381.839,165.387L758.117,165.387C763.783,165.394 768.443,170.054 768.45,175.72L768.45,723.095C768.443,728.761 763.783,733.421 758.117,733.428Z" style="fill:white;fill-rule:nonzero;"/>
    </g>
    <g transform="matrix(1,0,0,1,-100,50)">
        <path d="M400.196,417.26C401.246,402.997 402.981,385.464 417.092,377.844C423.75,374.249 430.801,375.521 437.495,378.323C443.964,381.031 450.058,384.259 457.025,385.532C469.032,387.604 481.394,385.75 492.266,380.248C503.216,374.803 512.006,365.807 517.195,354.733C519.867,349.1 522.075,342.996 526.011,338.079C530.038,332.833 536.58,330.125 543.136,330.993C557.932,332.819 567.751,345.784 579.547,353.416C585.22,357.086 591.734,359.766 598.603,359.438C605.649,359.101 612.036,355.765 617.435,351.411C628.892,342.172 635.156,327.884 647.18,319.275C658.754,311.194 673.705,309.605 686.719,315.073C699.042,320.389 707.767,332.299 710.072,345.407C710.624,348.636 710.767,351.923 710.497,355.188C710.346,357.113 713.347,357.103 713.497,355.188C714.408,341.427 708.824,328.005 698.422,318.951C687.784,309.774 672.922,306.791 659.405,310.322C652.522,312.147 646.196,315.644 640.989,320.502C635.428,325.631 631.042,331.845 626.347,337.735C621.768,343.482 616.715,349.031 610.288,352.743C604.062,356.537 596.47,357.4 589.552,355.101C582.613,352.76 576.735,347.938 571.183,343.321C565.461,338.562 559.766,333.8 552.888,330.776C546.492,327.964 539.158,326.6 532.501,329.369C526.499,331.866 522.526,337.048 519.582,342.653C516.593,348.342 514.464,354.477 510.977,359.902C507.604,365.094 503.276,369.599 498.222,373.177C487.958,380.51 475.47,384.078 462.882,383.274C456.041,382.788 449.821,380.627 443.626,377.795C436.789,374.669 429.587,371.418 421.894,372.932C415.258,374.239 409.675,378.747 405.799,384.133C401.323,390.351 399.357,397.975 398.33,405.462C397.793,409.379 397.486,413.319 397.196,417.26C397.054,419.186 400.055,419.177 400.196,417.26L400.196,417.26Z" style="fill:rgb(228,228,228);fill-rule:nonzero;"/>
    </g>
    <g transform="matrix(1,0,0,1,113.5,194)">
        <path d="M716.987,596.364L702.742,596.363L695.965,541.418L716.989,541.419L716.987,596.364Z" style="fill:rgb(255,182,182);fill-rule:nonzero;"/>
    </g>
    <g transform="matrix(1,0,0,1,-100,50)">
        <path d="M930.107,735.708L914.908,729.534L914.46,729.35L906.067,735.708C896.554,735.707 888.623,743.301 888.211,752.805C888.188,753.058 888.188,753.322 888.188,753.587L888.188,754.173L934.12,754.173L934.12,735.708L930.107,735.708Z" style="fill:rgb(47,46,65);fill-rule:nonzero;"/>
    </g>
    <g transform="matrix(1,0,0,1,113.5,194)">
        <path d="M683.627,583.107L670.189,587.835L645.56,538.254L665.392,531.277L683.627,583.107Z" style="fill:rgb(255,182,182);fill-rule:nonzero;"/>
    </g>
    <g transform="matrix(1,0,0,1,-100,50)">
        <path d="M895.224,722.842L878.837,722.063L878.353,722.038L872.546,730.821C863.572,733.977 858.611,743.773 861.377,752.875C861.44,753.121 861.527,753.37 861.615,753.62L861.81,754.173L905.137,738.928L899.009,721.51L895.224,722.842Z" style="fill:rgb(47,46,65);fill-rule:nonzero;"/>
    </g>
    <g transform="matrix(1,0,0,1,-100,50)">
        <path d="M935.521,503.453C948.553,502.948 932.409,606.802 932.409,606.802C932.409,606.802 937.132,697.981 936.131,702.766C935.13,707.551 936.004,720.456 936.004,720.456C933.451,715.809 907.109,719.317 907.109,719.317L903.526,626.906L885.23,552.865L859.864,602.496L884.176,678.678C884.176,678.678 894.021,687.788 892.974,691.388C891.928,694.988 866.139,703.107 861.4,703.291C856.661,703.475 858.801,697.459 858.571,691.536C858.341,685.612 836.041,630.71 828.198,612.03C820.354,593.349 826.452,567.009 830.456,547.87C834.46,528.73 855.524,492.811 855.524,492.811C881.67,463.32 922.489,503.959 935.521,503.453Z" style="fill:rgb(47,46,65);fill-rule:nonzero;"/>
    </g>
    <g transform="matrix(1,0,0,1,113.5,194)">
        <circle cx="685.551" cy="162.05" r="24.856" style="fill:rgb(255,182,182);"/>
    </g>
    <g transform="matrix(1,0,0,1,-100,50)">
        <path d="M886.623,347.335C881.268,350.519 878.065,356.368 876.226,362.32C872.821,373.34 870.772,384.734 870.123,396.249L863.05,464.954L849.398,498.78C878.593,496.245 943.336,508.141 943.336,508.141C943.336,508.141 945.741,507.339 943.336,504.934C940.93,502.528 938.589,504.66 940.994,502.254C943.4,499.849 941.741,502.528 940.94,500.123C940.138,497.717 940.94,499.321 941.741,498.519C942.543,497.717 935.534,490.501 935.534,490.501L941.949,448.364L949.967,363.371C940.345,351.344 920.994,344.254 920.994,344.254L915.994,335.254L890.994,337.254L886.623,347.335Z" style="fill:rgb(66,103,178);fill-rule:nonzero;"/>
    </g>
    <g transform="matrix(1,0,0,1,-100,50)">
        <path d="M959.384,442.358L953.216,405.998L931.75,409.887L933.636,441.692L924.24,507.893C919.503,509.606 916.328,514.131 916.328,519.169C916.328,525.747 921.741,531.16 928.319,531.16C934.897,531.16 940.31,525.747 940.31,519.169C940.31,518.13 940.175,517.095 939.908,516.091L959.384,442.358Z" style="fill:rgb(255,182,182);fill-rule:nonzero;"/>
    </g>
    <g transform="matrix(1,0,0,1,-100,50)">
        <path d="M941.651,357.277C955.541,361.276 961.013,413.162 961.013,413.162C967.305,438.204 955.397,448.749 952.375,448.639C943.787,448.326 939.029,440.974 934.282,443.989C931.567,445.713 931.06,425.904 931.06,425.904C931.06,425.904 921.32,407.473 915.478,390.147C911.94,380.264 913.718,369.226 920.181,360.954C926.643,352.681 927.76,353.277 941.651,357.277Z" style="fill:rgb(66,103,178);fill-rule:nonzero;"/>
    </g>
    <g transform="matrix(1,0,0,1,-100,50)">
        <path d="M927.494,298.454C927.412,294.416 926.955,289.251 924.127,285.131C921.74,281.666 916.926,278.919 912.438,280.292C912.541,278.465 911.603,276.729 910.019,275.813C908.299,274.933 906.401,274.455 904.469,274.416C899.917,273.991 895.2,273.549 890.59,274.424C885.417,275.405 881.183,278.069 878.984,281.739L878.935,281.854L878.485,284.028C878.364,284.618 877.991,285.126 877.464,285.417C876.936,285.713 876.303,285.758 875.739,285.54C875.529,285.461 875.306,285.421 875.082,285.421C874.055,285.421 873.21,286.266 873.21,287.293C873.21,287.385 873.216,287.476 873.23,287.567L873.352,288.433L872.053,288.188C871.936,288.165 871.817,288.154 871.698,288.154C870.674,288.154 869.832,288.997 869.832,290.021C869.832,290.246 869.872,290.47 869.952,290.681L870.312,291.67C869.77,291.677 869.253,291.905 868.882,292.299C868.345,292.883 868.245,293.752 868.636,294.441C870.093,296.927 872.157,299.003 874.636,300.473C875.75,301.144 876.952,301.659 878.208,302.001C878.469,302.075 878.739,302.14 879.017,302.198C889.052,304.36 899.398,304.671 909.545,303.113C908.948,305.115 908.718,307.209 908.867,309.292C909.046,311.697 910.551,313.812 912.765,314.769C913.228,314.925 913.704,315.04 914.188,315.112C914.651,315.187 915.107,315.299 915.553,315.447C917.115,316.019 918.16,317.515 918.16,319.18C918.16,320.366 917.629,321.493 916.713,322.247C915.797,323.002 918.855,324.021 919.124,323.931C920.177,323.466 921.058,322.683 921.642,321.692C925.72,315.823 927.69,308.009 927.494,298.454Z" style="fill:rgb(47,46,65);fill-rule:nonzero;"/>
    </g>
    <g transform="matrix(1,0,0,1,-100,50)">
        <path d="M276.298,673.359L273.378,688.009C273.158,689.129 272.928,690.269 272.678,691.399C270.237,690.894 267.707,691.035 265.338,691.809C267.217,694.495 268.902,697.313 270.378,700.239C268.538,705.909 265.838,711.149 261.318,714.939C255.185,719.967 246.848,721.433 239.368,718.799L239.498,718.219C234.638,708.789 237.278,696.899 243.318,688.189C246.398,683.893 250.048,680.034 254.168,676.719C258.248,673.319 262.658,670.269 267.028,667.259C268.026,666.573 269.21,666.205 270.422,666.205C273.708,666.205 276.412,668.909 276.412,672.195C276.412,672.586 276.374,672.976 276.298,673.359Z" style="fill:rgb(66,103,178);fill-rule:nonzero;"/>
    </g>
    <g id="a14ee49e-0bc4-4fe7-9ff0-205b8984b39e-492" transform="matrix(1,0,0,1,-100,50)">
        <path d="M240.408,754.049C239.179,745.096 237.915,736.029 238.777,726.98C239.543,718.944 241.994,711.095 246.986,704.659C249.635,701.25 252.859,698.328 256.513,696.026C257.466,695.426 258.342,696.935 257.394,697.533C251.073,701.528 246.183,707.429 243.431,714.38C240.391,722.112 239.903,730.541 240.431,738.754C240.748,743.721 241.419,748.654 242.096,753.584C242.208,754.045 241.939,754.519 241.486,754.658C241.024,754.783 240.541,754.509 240.412,754.048L240.408,754.049Z" style="fill:rgb(66,103,178);fill-rule:nonzero;"/>
    </g>
    <g transform="matrix(1,0,0,1,113.5,194)">
        <circle cx="355.052" cy="10.266" r="2.852" style="fill:white;"/>
    </g>
    <g transform="matrix(1,0,0,1,-100,50)">
        <path d="M735.275,418.236L397.033,418.236C396.452,418.236 395.975,417.759 395.974,417.178L396.488,416L735.275,416.119C735.276,416.119 735.278,416.119 735.279,416.119C735.86,416.119 736.337,416.597 736.337,417.178C736.337,417.757 735.862,418.234 735.283,418.236L735.275,418.236L735.275,418.236Z" style="fill:rgb(63,61,86);fill-rule:nonzero;"/>
    </g>
    <g transform="matrix(1,0,0,1,113.5,194)">
        <rect x="245.796" y="266.831" width="2.076" height="5.916" style="fill:rgb(63,61,86);"/>
    </g>
    <g transform="matrix(1,0,0,1,113.5,194)">
        <rect x="307.953" y="232.831" width="2.076" height="39.916" style="fill:rgb(63,61,86);"/>
    </g>
    <g transform="matrix(1,0,0,1,113.5,194)">
        <rect x="370.237" y="184.831" width="2.076" height="87.916" style="fill:rgb(63,61,86);"/>
    </g>
    <g transform="matrix(1,0,0,1,113.5,194)">
        <rect x="432.521" y="143.831" width="2.076" height="128.916" style="fill:rgb(63,61,86);"/>
    </g>
    <g transform="matrix(1,0,0,1,113.5,194)">
        <rect x="494.806" y="237.831" width="2.076" height="34.916" style="fill:rgb(63,61,86);"/>
    </g>
    <g transform="matrix(1,0,0,1,113.5,194)">
        <circle cx="433.687" cy="130.294" r="6.351" style="fill:rgb(252,211,10);"/>
    </g>
    <g transform="matrix(1,0,0,1,113.5,194)">
        <circle cx="372.403" cy="167.551" r="6.351" style="fill:rgb(252,211,10);"/>
    </g>
    <g transform="matrix(1,0,0,1,113.5,194)">
        <circle cx="495.972" cy="226.132" r="6.351" style="fill:rgb(252,211,10);"/>
    </g>
    <g id="a2bcaba5-fcc7-43c7-8c54-c107139343be-493" transform="matrix(1,0,0,1,-100,50)">
        <path d="M520.832,638.51L520.832,563.571C520.832,562.61 521.95,561.831 523.329,561.831L534.471,561.831C535.85,561.831 536.968,562.61 536.968,563.571L536.968,638.705L520.832,638.51Z" style="fill:rgb(63,61,86);fill-rule:nonzero;"/>
    </g>
    <g id="b02c718b-b277-4e02-ad4f-2608dd9924ba-494" transform="matrix(1,0,0,1,-100,50)">
        <path d="M557.633,638.762L557.633,581.503C557.633,580.58 558.751,579.831 560.13,579.831L571.272,579.831C572.651,579.831 573.769,580.58 573.769,581.503L573.769,638.639L557.633,638.762Z" style="fill:rgb(63,61,86);fill-rule:nonzero;"/>
    </g>
    <g id="a6f13ee1-90c9-41e9-aa52-bae832a2d909-495" transform="matrix(1,0,0,1,-100,50)">
        <path d="M631.234,638.629L631.234,609.507C631.137,609.159 632.251,608.857 633.731,608.831L644.873,608.831C646.354,608.857 647.468,609.159 647.37,609.507L647.37,638.705L631.234,638.629Z" style="fill:rgb(63,61,86);fill-rule:nonzero;"/>
    </g>
    <g id="fa174473-4e9f-4d8b-98c3-8d6761a9e9bb-496" transform="matrix(1,0,0,1,-100,50)">
        <path d="M484.032,638.629L484.032,609.507C484.032,609.134 485.149,608.831 486.528,608.831L497.67,608.831C499.049,608.831 500.167,609.134 500.167,609.507L500.167,638.705L484.032,638.629Z" style="fill:rgb(63,61,86);fill-rule:nonzero;"/>
    </g>
    <g id="e966b75a-f3f6-4a21-bd4c-c130f0d0c74e-497" transform="matrix(1,0,0,1,-100,50)">
        <path d="M594.433,638.339L594.433,497.712C594.433,495.909 595.551,494.447 596.93,494.447L608.072,494.447C609.451,494.447 610.569,495.909 610.569,497.712L610.569,638.705L594.433,638.339Z" style="fill:rgb(252,211,10);fill-rule:nonzero;"/>
    </g>
    <g transform="matrix(1,0,0,1,-100,50)">
        <path d="M695.39,640L443.39,640C442.841,640 442.39,639.549 442.39,639C442.39,638.451 442.841,638 443.39,638L695.39,638C695.938,638 696.39,638.451 696.39,639C696.39,639.549 695.938,640 695.39,640Z" style="fill:rgb(63,61,86);fill-rule:nonzero;"/>
    </g>
    <g transform="matrix(1,0,0,1,-100,50)">
        <path d="M985.5,756L214.5,756C213.951,756 213.5,755.549 213.5,755C213.5,754.451 213.951,754 214.5,754L985.5,754C986.049,754 986.5,754.451 986.5,755C986.5,755.549 986.049,756 985.5,756Z" style="fill:rgb(204,204,204);fill-rule:nonzero;"/>
    </g>
    <g transform="matrix(1,0,0,1,113.5,194)">
        <circle cx="247.119" cy="253.904" r="6.351" style="fill:rgb(252,211,10);"/>
    </g>
    <g transform="matrix(1,0,0,1,113.5,194)">
        <circle cx="309.119" cy="218.904" r="6.351" style="fill:rgb(252,211,10);"/>
    </g>
</svg>
